<svg width="24" height="24" viewBox="0 0 24 24" fill="none" xmlns="http://www.w3.org/2000/svg">
<g clip-path="url(#clip0_8_15305)">
<path fill-rule="evenodd" clip-rule="evenodd" d="M1.12269 24C1.1644 24 1.20614 23.9977 1.24876 23.993L6.59908 23.4019L23.1215 6.87936C24.2929 5.70795 24.2929 3.80859 23.121 2.63718L21.3628 0.878906C20.7773 0.292969 20.0095 0 19.2417 0C18.4739 0 17.7061 0.292969 17.1201 0.878448L0.602357 17.3963L0.00708287 22.7503C-0.0679443 23.4244 0.463151 24 1.12269 24ZM19.3453 8.53455L15.4654 4.65468L18.1809 1.93922C18.464 1.6561 18.8409 1.5 19.2417 1.5C19.6425 1.5 20.0189 1.6561 20.3025 1.93922L22.0607 3.69749C22.6452 4.28252 22.6452 5.23407 22.0607 5.81905L19.3453 8.53455ZM2.03533 18.0853L1.54969 22.4527L5.91047 21.9694L18.285 9.59532L14.4051 5.71545L2.03533 18.0853Z" fill="#5660F2"/>
<mask id="mask0_8_15305" style="mask-type:alpha" maskUnits="userSpaceOnUse" x="0" y="0" width="24" height="24">
<path fill-rule="evenodd" clip-rule="evenodd" d="M1.12269 24C1.1644 24 1.20614 23.9977 1.24876 23.993L6.59908 23.4019L23.1215 6.87936C24.2929 5.70795 24.2929 3.80859 23.121 2.63718L21.3628 0.878906C20.7773 0.292969 20.0095 0 19.2417 0C18.4739 0 17.7061 0.292969 17.1201 0.878448L0.602357 17.3963L0.00708287 22.7503C-0.0679443 23.4244 0.463151 24 1.12269 24ZM19.3453 8.53455L15.4654 4.65468L18.1809 1.93922C18.464 1.6561 18.8409 1.5 19.2417 1.5C19.6425 1.5 20.0189 1.6561 20.3025 1.93922L22.0607 3.69749C22.6452 4.28252 22.6452 5.23407 22.0607 5.81905L19.3453 8.53455ZM2.03533 18.0853L1.54969 22.4527L5.91047 21.9694L18.285 9.59532L14.4051 5.71545L2.03533 18.0853Z" fill="white"/>
</mask>
<g mask="url(#mask0_8_15305)">
<path d="M24 0H0V24H24V0Z" fill="#5660F2"/>
</g>
</g>
<defs>
<clipPath id="clip0_8_15305">
<rect width="24" height="24" fill="white"/>
</clipPath>
</defs>
</svg>
