<svg width="24" height="24" viewBox="0 0 24 24" fill="none" xmlns="http://www.w3.org/2000/svg">
<path fill-rule="evenodd" clip-rule="evenodd" d="M5.87985 0H17.9543C20.3893 0.00269983 22.3625 1.97612 22.3649 4.4111V14.7282C22.3653 16.236 21.8141 17.6919 20.8152 18.8214L18.1243 21.864C16.9513 23.1901 15.2661 23.9496 13.4957 23.95H5.87985C3.44479 23.9473 1.47145 21.974 1.46875 19.5389V4.4111C1.47145 1.97604 3.44479 0.00269933 5.87985 0ZM2.93814 19.5399C2.94003 21.1638 4.25597 22.4797 5.87985 22.4816L13.4957 22.4851C13.7326 22.483 13.9691 22.4629 14.203 22.4248L14.3092 17.4779C14.3407 16.3133 15.2906 15.3838 16.4555 15.3776H20.6163C20.6928 15.3787 20.7687 15.3917 20.8412 15.4163C20.8758 15.1894 20.894 14.9602 20.8955 14.7306V4.4111C20.8936 2.78741 19.578 1.47155 17.9543 1.46939H5.87985C4.25597 1.47128 2.94003 2.78722 2.93814 4.4111V19.5399ZM17.0237 20.8913C16.644 21.3178 16.1897 21.6715 15.6831 21.935L15.7781 17.5073C15.7882 17.1399 16.088 16.8468 16.4555 16.8451H20.391C20.2096 17.2074 19.9821 17.5447 19.7141 17.8487L17.0237 20.8913ZM16.4536 8.63853H7.35022C6.94446 8.63853 6.61553 8.3096 6.61553 7.90384C6.61553 7.49808 6.94446 7.16914 7.35022 7.16914H16.4536C16.8593 7.16914 17.1883 7.49808 17.1883 7.90384C17.1883 8.3096 16.8593 8.63853 16.4536 8.63853ZM7.35022 11.8369H16.4536C16.8593 11.8369 17.1883 11.508 17.1883 11.1022C17.1883 10.6964 16.8593 10.3675 16.4536 10.3675H7.35022C6.94446 10.3675 6.61553 10.6964 6.61553 11.1022C6.61553 11.508 6.94446 11.8369 7.35022 11.8369ZM7.35022 13.5634H11.1956C11.6014 13.5634 11.9303 13.8924 11.9303 14.2981C11.9303 14.7039 11.6014 15.0328 11.1956 15.0328H7.35022C6.94446 15.0328 6.61553 14.7039 6.61553 14.2981C6.61553 13.8924 6.94446 13.5634 7.35022 13.5634Z" fill="#2E2842"/>
<mask id="mask0_8_15414" style="mask-type:alpha" maskUnits="userSpaceOnUse" x="1" y="0" width="22" height="24">
<path fill-rule="evenodd" clip-rule="evenodd" d="M5.87985 0H17.9543C20.3893 0.00269983 22.3625 1.97612 22.3649 4.4111V14.7282C22.3653 16.236 21.8141 17.6919 20.8152 18.8214L18.1243 21.864C16.9513 23.1901 15.2661 23.9496 13.4957 23.95H5.87985C3.44479 23.9473 1.47145 21.974 1.46875 19.5389V4.4111C1.47145 1.97604 3.44479 0.00269933 5.87985 0ZM2.93814 19.5399C2.94003 21.1638 4.25597 22.4797 5.87985 22.4816L13.4957 22.4851C13.7326 22.483 13.9691 22.4629 14.203 22.4248L14.3092 17.4779C14.3407 16.3133 15.2906 15.3838 16.4555 15.3776H20.6163C20.6928 15.3787 20.7687 15.3917 20.8412 15.4163C20.8758 15.1894 20.894 14.9602 20.8955 14.7306V4.4111C20.8936 2.78741 19.578 1.47155 17.9543 1.46939H5.87985C4.25597 1.47128 2.94003 2.78722 2.93814 4.4111V19.5399ZM17.0237 20.8913C16.644 21.3178 16.1897 21.6715 15.6831 21.935L15.7781 17.5073C15.7882 17.1399 16.088 16.8468 16.4555 16.8451H20.391C20.2096 17.2074 19.9821 17.5447 19.7141 17.8487L17.0237 20.8913ZM16.4536 8.63853H7.35022C6.94446 8.63853 6.61553 8.3096 6.61553 7.90384C6.61553 7.49808 6.94446 7.16914 7.35022 7.16914H16.4536C16.8593 7.16914 17.1883 7.49808 17.1883 7.90384C17.1883 8.3096 16.8593 8.63853 16.4536 8.63853ZM7.35022 11.8369H16.4536C16.8593 11.8369 17.1883 11.508 17.1883 11.1022C17.1883 10.6964 16.8593 10.3675 16.4536 10.3675H7.35022C6.94446 10.3675 6.61553 10.6964 6.61553 11.1022C6.61553 11.508 6.94446 11.8369 7.35022 11.8369ZM7.35022 13.5634H11.1956C11.6014 13.5634 11.9303 13.8924 11.9303 14.2981C11.9303 14.7039 11.6014 15.0328 11.1956 15.0328H7.35022C6.94446 15.0328 6.61553 14.7039 6.61553 14.2981C6.61553 13.8924 6.94446 13.5634 7.35022 13.5634Z" fill="white"/>
</mask>
<g mask="url(#mask0_8_15414)">
<path d="M24 0H0V24H24V0Z" fill="#5660F2"/>
</g>
</svg>
