<svg width="24" height="24" viewBox="0 0 24 24" fill="none" xmlns="http://www.w3.org/2000/svg">
<path fill-rule="evenodd" clip-rule="evenodd" d="M24 12C24 18.6274 18.6274 24 12 24C5.37257 24 0 18.6274 0 12C0 5.37257 5.37257 0 12 0C18.6274 0 24 5.37257 24 12ZM4.48478 13.3216L9.51704 18.3539C9.81941 18.6562 10.3096 18.6562 10.612 18.3539L19.5152 9.4507C19.8175 9.14837 19.8175 8.65812 19.5152 8.3558L18.4203 7.26094C18.118 6.95857 17.6278 6.95857 17.3254 7.26094L10.0645 14.5218L6.67458 11.1319C6.37226 10.8295 5.88201 10.8295 5.57968 11.1319L4.48478 12.2267C4.18251 12.529 4.18251 13.0193 4.48478 13.3216Z" fill="#8E9CB2"/>
<mask id="mask0_8_15469" style="mask-type:alpha" maskUnits="userSpaceOnUse" x="0" y="0" width="24" height="24">
<path fill-rule="evenodd" clip-rule="evenodd" d="M24 12C24 18.6274 18.6274 24 12 24C5.37257 24 0 18.6274 0 12C0 5.37257 5.37257 0 12 0C18.6274 0 24 5.37257 24 12ZM4.48478 13.3216L9.51704 18.3539C9.81941 18.6562 10.3096 18.6562 10.612 18.3539L19.5152 9.4507C19.8175 9.14837 19.8175 8.65812 19.5152 8.3558L18.4203 7.26094C18.118 6.95857 17.6278 6.95857 17.3254 7.26094L10.0645 14.5218L6.67458 11.1319C6.37226 10.8295 5.88201 10.8295 5.57968 11.1319L4.48478 12.2267C4.18251 12.529 4.18251 13.0193 4.48478 13.3216Z" fill="white"/>
</mask>
<g mask="url(#mask0_8_15469)">
<path d="M24 0H0V24H24V0Z" fill="#5660F2"/>
</g>
</svg>
