<?xml version="1.0" standalone="no"?>
<!DOCTYPE svg PUBLIC "-//W3C//DTD SVG 1.1//EN" "http://www.w3.org/Graphics/SVG/1.1/DTD/svg11.dtd" >
<svg xmlns="http://www.w3.org/2000/svg" xmlns:xlink="http://www.w3.org/1999/xlink" version="1.1">
<metadata>
Created by FontForge 20200427 at Thu Jul 31 03:24:01 2003
 By www
Copyright (c) Rabbit Reproductions Typefoundry, 2003. All rights reserved.
</metadata>
<defs>
<font id="CanterburySansRR-Medium" horiz-adv-x="403" >
  <font-face 
    font-family="Canterbury Sans RR"
    font-weight="500"
    font-stretch="normal"
    units-per-em="2048"
    panose-1="2 0 5 6 0 0 0 2 0 2"
    ascent="1638"
    descent="-410"
    x-height="498"
    cap-height="1366"
    bbox="-80 -639 1925 1700"
    underline-thickness="61"
    underline-position="-197"
    unicode-range="U+0001-2122"
  />
<missing-glyph horiz-adv-x="682" 
 />
    <glyph glyph-name=".notdef" horiz-adv-x="682" 
 />
    <glyph glyph-name=".null" horiz-adv-x="0" 
 />
    <glyph glyph-name="nonmarkingreturn" horiz-adv-x="547" 
 />
    <glyph glyph-name="space" unicode=" " horiz-adv-x="547" 
 />
    <glyph glyph-name="E" unicode="E" horiz-adv-x="846" 
d="M154 1366h563v-82h-467v-379h336v-82h-336v-735h571v-88h-667v1366z" />
    <glyph glyph-name="F" unicode="F" horiz-adv-x="803" 
d="M154 1366h626v-82h-530v-379h395v-82h-395v-823h-96v1366z" />
    <glyph glyph-name="G" unicode="G" horiz-adv-x="1309" 
d="M1171 184q-56 -59 -130 -106q-31 -20 -69.5 -39t-82.5 -34t-94.5 -24.5t-106.5 -9.5q-133 0 -243.5 51.5t-190 144.5t-124 222t-44.5 283q0 156 48.5 288t135 229t204.5 151.5t257 54.5q141 0 250.5 -49.5t200.5 -157.5l-68 -68q-38 46 -79 80.5t-88 57t-101 34
t-119 11.5q-117 0 -216.5 -47.5t-172.5 -131.5t-114.5 -199t-41.5 -251q0 -79 14.5 -155.5t43 -144.5t71.5 -126t99.5 -100t127 -65.5t154.5 -23.5q53 0 105 12t100.5 33t94 50t85.5 63v356h-346v80h440v-469z" />
    <glyph glyph-name="H" unicode="H" horiz-adv-x="1010" 
d="M250 0h-96v1366h96v-496h510v496h96v-1366h-96v788h-510v-788z" />
    <glyph glyph-name="I" unicode="I" 
d="M250 1366v-1366h-96v1366h96z" />
    <glyph glyph-name="J" unicode="J" horiz-adv-x="561" 
d="M408 1366v-1008q0 -199 -74.5 -292t-231.5 -93q-26 0 -53 3t-47 10v96q22 -9 46 -15t44 -6q64 0 106 18.5t67 55t35.5 92.5t10.5 131v1008h97z" />
    <glyph glyph-name="K" unicode="K" horiz-adv-x="881" 
d="M756 1366h106l-340 -328l357 -1038h-101l-329 969l-201 -197v-772h-94v1366h94v-483z" />
    <glyph glyph-name="L" unicode="L" horiz-adv-x="823" 
d="M250 1366v-1278h571v-88h-667v1366h96z" />
    <glyph glyph-name="M" unicode="M" horiz-adv-x="1212" 
d="M270 1366h80l256 -850l258 850h72l244 -1366h-97l-198 1128l-240 -804h-78l-248 815l-194 -1139h-92z" />
    <glyph glyph-name="N" unicode="N" horiz-adv-x="1020" 
d="M154 1366h61l561 -1122v1122h90v-1366h-71l-551 1108v-1108h-90v1366z" />
    <glyph glyph-name="O" unicode="O" horiz-adv-x="1446" 
d="M723 1393q135 0 251 -52t200.5 -144.5t133 -219.5t48.5 -277q0 -157 -47.5 -290.5t-131.5 -230.5t-200 -151.5t-254 -54.5t-254 54.5t-200 151.5t-131.5 230.5t-47.5 290.5q0 150 48 277t133 219.5t201 144.5t251 52zM723 61q117 0 216 48.5t170 134t111 202.5t40 254
q0 130 -40.5 241t-112.5 192t-170.5 126.5t-213.5 45.5t-213.5 -45.5t-170.5 -126.5t-112.5 -192t-40.5 -241q0 -137 40 -254t111 -202.5t170 -134t216 -48.5z" />
    <glyph glyph-name="P" unicode="P" horiz-adv-x="938" 
d="M250 0h-96v1366h256q107 0 192 -20t144.5 -62t91.5 -108.5t32 -159.5q0 -97 -34 -171t-95 -124t-145.5 -75t-185.5 -25h-160v-621zM424 700q83 0 148 20.5t110 60.5t68.5 97.5t23.5 131.5q0 77 -22.5 129t-65.5 84.5t-106.5 46.5t-145.5 14h-184v-584h174z" />
    <glyph glyph-name="Q" unicode="Q" horiz-adv-x="1446" 
d="M723 1393q135 0 251 -52t200.5 -144.5t133 -219.5t48.5 -277q0 -133 -34 -248.5t-96 -207t-148.5 -155.5t-190.5 -93q5 -9 9.5 -19.5t10.5 -19.5q34 -65 71.5 -122t80 -99.5t89.5 -69t99 -31.5q26 -2 46.5 -1t36 3t24.5 5.5t10 5.5l-10 -90q-14 -2 -30 -4q-14 -2 -31 -2
t-36 2q-46 3 -91 18.5t-93 46.5q-37 23 -70.5 57t-62.5 73.5t-54 82t-46 84.5q-10 16 -17.5 32t-15.5 32q-38 -7 -84 -7q-138 0 -254 54.5t-200 151.5t-131.5 230.5t-47.5 290.5q0 150 48 277t133 219.5t201 144.5t251 52zM723 61h21q11 0 22 2q-32 67 -68 131t-84 119
q-4 5 -12 11.5t-16 14t-14.5 15.5t-6.5 15q0 12 9.5 20t23.5 8t31.5 -8.5t34.5 -23.5q27 -23 51.5 -55t47 -70t43.5 -79.5t42 -84.5q92 24 168 80t130 137.5t84 185t30 221.5q0 130 -40.5 241t-112.5 192t-170.5 126.5t-213.5 45.5t-213.5 -45.5t-170.5 -126.5t-112.5 -192
t-40.5 -241q0 -137 40 -254t111 -202.5t170 -134t216 -48.5z" />
    <glyph glyph-name="R" unicode="R" horiz-adv-x="946" 
d="M250 0h-96v1366h280q99 0 176.5 -22t130.5 -63.5t81 -101.5t28 -137q0 -73 -27.5 -132t-75.5 -102.5t-112.5 -72t-138.5 -41.5l370 -694h-110l-357 686h-149v-686zM387 768q80 0 146 20t113 56.5t73 87.5t26 112q0 119 -79 179.5t-232 60.5h-184v-516h137z" />
    <glyph glyph-name="S" unicode="S" horiz-adv-x="993" 
d="M784 1204q-6 6 -27 23t-56.5 35t-84 32.5t-110.5 14.5q-67 0 -121 -17t-92 -48t-59 -74t-21 -95q0 -67 23.5 -107.5t68.5 -69.5t110.5 -54.5t149.5 -63.5q68 -28 129.5 -63.5t108 -83t74.5 -108.5t28 -140q0 -88 -33 -164t-91 -131.5t-137.5 -87t-172.5 -31.5
q-102 0 -203.5 26.5t-197.5 74.5l41 86q85 -48 174.5 -72.5t177.5 -24.5q74 0 137 25t109.5 68.5t73 102.5t26.5 128q0 50 -15.5 91.5t-50 78t-88.5 70t-131 67.5q-66 29 -122 52.5t-101 46.5t-79.5 48t-57.5 57.5t-35 75.5t-12 101q0 71 27.5 130t77.5 102t119.5 66.5
t152.5 23.5q90 0 152.5 -16t103.5 -36.5t62.5 -38.5t27.5 -22z" />
    <glyph glyph-name="T" unicode="T" horiz-adv-x="700" 
d="M301 0v1284h-297v82h692v-82h-299v-1284h-96z" />
    <glyph glyph-name="U" unicode="U" horiz-adv-x="1212" 
d="M248 1366v-870q0 -77 4 -132t13 -95t24.5 -68.5t38.5 -53.5q45 -45 111.5 -65.5t166.5 -20.5t166.5 20t110.5 66q24 25 39.5 53.5t25 68.5t13.5 95t4 132v870h94v-870q0 -94 -5.5 -159t-18 -111.5t-34.5 -81t-55 -68.5q-52 -48 -140 -75.5t-200 -27.5t-200.5 27.5
t-141.5 75.5q-34 34 -55.5 68.5t-33.5 81t-16.5 111.5t-4.5 159v870h94z" />
    <glyph glyph-name="V" unicode="V" horiz-adv-x="811" 
d="M748 1366h90l-398 -1366h-67l-400 1366h101l336 -1151z" />
    <glyph glyph-name="W" unicode="W" horiz-adv-x="1190" 
d="M340 -14h-76l-246 1380h95l202 -1163l244 841h72l243 -841l203 1163h94l-245 -1380h-76l-254 882z" />
    <glyph glyph-name="X" unicode="X" horiz-adv-x="874" 
d="M750 1366h96l-361 -668l389 -698h-106l-336 608l-336 -608h-96l379 688l-363 678h105l311 -584z" />
    <glyph glyph-name="Y" unicode="Y" horiz-adv-x="797" 
d="M737 1366h101l-377 -745v-621h-96v582l-406 784h102l345 -664z" />
    <glyph glyph-name="Z" unicode="Z" horiz-adv-x="797" 
d="M762 88v-88h-742l605 1278h-559v88h704l-602 -1278h594z" />
    <glyph glyph-name="AE" unicode="&#xae;" horiz-adv-x="1507" 
d="M483 651l-415 -651h-105l868 1366h547v-82h-467v-379h336v-82h-336v-735h572v-88h-668v651h-332zM815 1178l-280 -443h280v443z" />
    <glyph glyph-name="OE" unicode="&#xce;" horiz-adv-x="1950" 
d="M723 1393q87 0 166 -22t147.5 -62.5t125 -99t98.5 -130.5v287h563v-82h-467v-379h334v-82h-334v-735h569v-88h-665v299q-41 -75 -97 -135.5t-125 -103t-148.5 -65t-166.5 -22.5q-138 0 -254 54.5t-200 151.5t-131.5 230.5t-47.5 290.5q0 150 48 277t133 219.5t201 144.5
t251 52zM723 61q117 0 216 48.5t170 134t111 202.5t40 254q0 130 -40.5 241t-112.5 192t-170.5 126.5t-213.5 45.5t-213.5 -45.5t-170.5 -126.5t-112.5 -192t-40.5 -241q0 -137 40 -254t111 -202.5t170 -134t216 -48.5z" />
    <glyph glyph-name="Oslash" unicode="&#xaf;" horiz-adv-x="1446" 
d="M723 1393q105 0 197 -32t170 -89q18 23 36.5 46t36.5 48h103l-113 -149q94 -93 148.5 -225.5t54.5 -291.5q0 -157 -47.5 -290.5t-131.5 -230.5t-200 -151.5t-254 -54.5q-116 0 -215.5 38.5t-179.5 107.5l-90 -119h-105q35 46 69 90.5t66 87.5q-85 97 -131.5 230
t-46.5 292q0 150 48 277t133 219.5t201 144.5t251 52zM723 61q117 0 216 48.5t170 134t111 202.5t40 254q0 135 -43.5 247t-118.5 194l-715 -946q68 -63 154 -98.5t186 -35.5zM326 256q102 135 195 258.5t180 239.5l169.5 226l163.5 218q-65 51 -143 79t-168 28
q-115 0 -213.5 -45.5t-170.5 -126.5t-112.5 -192t-40.5 -241q0 -133 37 -246t103 -198z" />
    <glyph glyph-name="Adieresis" unicode="&#x20ac;" horiz-adv-x="762" 
d="M195 1548q0 26 17 44t42 18q26 0 42.5 -17.5t16.5 -42.5q0 -26 -16 -42.5t-41 -16.5q-26 0 -43.5 16.5t-17.5 40.5zM453 1548q0 26 16 44t41 18q26 0 43.5 -17.5t17.5 -42.5q0 -26 -17.5 -42.5t-43.5 -16.5q-25 0 -41 16.5t-16 40.5zM346 1366h70l372 -1366h-98l-155 571
h-314l-155 -571h-93zM512 653l-135 490l-133 -490h268z" />
    <glyph glyph-name="Aacute" unicode="&#xe7;" horiz-adv-x="762" 
d="M-27 0h93l155 571h314l155 -571h98l-372 1366h-70zM244 653l133 490l135 -490h-268zM317 1462q14 18 29.5 40t31 44.5t31 44.5t29.5 41q25 35 44.5 51.5t37.5 16.5q22 0 35.5 -13.5t13.5 -31.5q0 -13 -6 -27.5t-24 -30.5l-150 -135h-72z" />
    <glyph glyph-name="Agrave" unicode="&#xcb;" horiz-adv-x="762" 
d="M346 1366h70l372 -1366h-98l-155 571h-314l-155 -571h-93zM512 653l-135 490l-133 -490h268zM373 1462l-150 135q-18 16 -24 30.5t-6 27.5q0 18 13.5 31.5t35.5 13.5q18 0 37.5 -16.5t44.5 -51.5q14 -19 29 -41t31 -44.5t31.5 -44.5t28.5 -40h-71z" />
    <glyph glyph-name="Acircumflex" unicode="&#xe5;" horiz-adv-x="762" 
d="M346 1366h70l372 -1366h-98l-155 571h-314l-155 -571h-93zM512 653l-135 490l-133 -490h268zM336 1632q11 11 24 17t25 6q26 0 47 -23l162 -170h-102l-111 99l-119 -99h-98z" />
    <glyph glyph-name="Atilde" unicode="&#xcc;" horiz-adv-x="762" 
d="M346 1366h70l372 -1366h-98l-155 571h-314l-155 -571h-93zM512 653l-135 490l-133 -490h268zM188 1513q59 70 123 70q17 0 33 -4.5t32.5 -10t32.5 -10t33 -4.5q19 0 32 10.5t32 34.5l63 -49q-28 -42 -57 -59.5t-68 -17.5q-18 0 -33 4t-29.5 8.5t-29.5 8t-33 3.5
q-17 0 -33.5 -8.5t-39.5 -28.5z" />
    <glyph glyph-name="Aring" horiz-adv-x="762" 
d="M-27 0h93l155 571h314l155 -571h98l-372 1366h-70zM244 653l133 490l135 -490h-268zM379 1427q-26 0 -48.5 10t-39 26.5t-26 39t-9.5 47.5q0 26 9.5 48t26.5 38t39.5 25.5t47.5 9.5t47.5 -9.5t39 -25.5t26.5 -38t10 -48q0 -25 -9.5 -47.5t-26 -39t-39 -26.5t-48.5 -10z
M379 1602q-22 0 -36.5 -16t-14.5 -36q0 -21 14.5 -37t36.5 -16t36.5 16t14.5 37q0 20 -14.5 36t-36.5 16z" />
    <glyph glyph-name="Ccedilla" unicode="&#x201a;" horiz-adv-x="1264" 
d="M657 -27q-127 9 -232 62t-179 143t-115 213t-41 271q0 159 48 293.5t134 231.5t204 151.5t259 54.5q276 0 463 -228l-61 -63q-76 94 -179 149.5t-225 55.5q-119 0 -219 -47.5t-172.5 -132.5t-113 -203t-40.5 -258q0 -137 37.5 -248.5t105.5 -191t164 -122.5t214 -43
q74 0 134.5 13t113 39.5t101 66t99.5 92.5l53 -61q-4 -3 -19 -20.5t-42 -42.5t-65.5 -54t-89 -54.5t-113.5 -44t-138 -22.5l-36 -51q48 -8 75 -35t27 -67q0 -54 -41 -87.5t-113 -33.5q-35 0 -68 13t-59 30l43 59q22 -12 40.5 -20t41.5 -8q31 0 51.5 13t20.5 32q0 17 -20 30
t-54 13q-8 0 -20 -0.5t-25 -2.5q-15 -2 -31 -3z" />
    <glyph glyph-name="Edieresis" unicode="&#xe8;" horiz-adv-x="846" 
d="M154 1366h563v-82h-467v-379h336v-82h-336v-735h571v-88h-667v1366zM266 1548q0 26 16.5 44t41.5 18q26 0 43.5 -17.5t17.5 -42.5q0 -26 -17.5 -42.5t-41.5 -16.5q-26 0 -43 16.5t-17 40.5zM522 1548q0 26 17.5 44t40.5 18q26 0 43.5 -17.5t17.5 -42.5q0 -26 -17.5 -42.5
t-43.5 -16.5q-23 0 -40.5 16.5t-17.5 40.5z" />
    <glyph glyph-name="Eacute" unicode="&#x192;" horiz-adv-x="846" 
d="M154 0h667v88h-571v735h336v82h-336v379h467v82h-563v-1366zM348 1462q14 18 29.5 40t31 44.5t31 44.5t29.5 41q25 35 44 51.5t38 16.5q22 0 35.5 -13.5t13.5 -31.5q0 -13 -6 -27.5t-25 -30.5l-149 -135h-72z" />
    <glyph glyph-name="Egrave" unicode="&#xe9;" horiz-adv-x="846" 
d="M154 1366h563v-82h-467v-379h336v-82h-336v-735h571v-88h-667v1366zM420 1462l-150 135q-18 16 -24 30.5t-6 27.5q0 18 13.5 31.5t35.5 13.5q18 0 37.5 -16.5t44.5 -51.5q14 -19 29.5 -41t31 -44.5t31 -44.5t29.5 -40h-72z" />
    <glyph glyph-name="Ecircumflex" unicode="&#xe6;" horiz-adv-x="846" 
d="M154 1366h563v-82h-467v-379h336v-82h-336v-735h571v-88h-667v1366zM399 1632q23 23 50 23q24 0 47 -23l161 -170h-102l-111 99l-118 -99h-99z" />
    <glyph glyph-name="Idieresis" unicode="&#xec;" 
d="M250 1366v-1366h-96v1366h96zM12 1548q0 26 17.5 44t42.5 18q26 0 42.5 -17.5t16.5 -42.5q0 -26 -16.5 -42.5t-40.5 -16.5q-26 0 -44 16.5t-18 40.5zM270 1548q0 26 16.5 44t41.5 18q26 0 43.5 -17.5t17.5 -42.5q0 -26 -17.5 -42.5t-43.5 -16.5q-25 0 -41.5 16.5
t-16.5 40.5z" />
    <glyph glyph-name="Iacute" unicode="&#xea;" 
d="M154 1366v-1366h94v1366h-94zM154 1462q14 18 29 40t31 44.5t31.5 44.5t28.5 41q25 35 44.5 51.5t37.5 16.5q22 0 36 -13.5t14 -31.5q0 -13 -6.5 -27.5t-24.5 -30.5l-150 -135h-71z" />
    <glyph glyph-name="Igrave" unicode="&#xed;" 
d="M250 1366v-1366h-94v1366h94zM178 1462l-149 135q-19 16 -25 30.5t-6 27.5q0 18 13.5 31.5t35.5 13.5q19 0 38 -16.5t44 -51.5q14 -19 29.5 -41t31 -44.5t31 -44.5t29.5 -40h-72z" />
    <glyph glyph-name="Icircumflex" unicode="&#xeb;" 
d="M252 1366v-1366h-96v1366h96zM160 1632q11 11 24 17t25 6q26 0 47 -23l162 -170h-103l-110 99l-119 -99h-98z" />
    <glyph glyph-name="Ntilde" unicode="&#x201e;" horiz-adv-x="1020" 
d="M154 1366h61l561 -1122v1122h90v-1366h-71l-551 1108v-1108h-90v1366zM311 1513q59 70 123 70q17 0 33 -4.5t32.5 -10t32.5 -10t33 -4.5q19 0 32 10.5t32 34.5l63 -49q-28 -42 -57.5 -59.5t-67.5 -17.5q-18 0 -33 4t-29.5 8.5t-29.5 8t-33 3.5q-17 0 -33.5 -8.5
t-39.5 -28.5z" />
    <glyph glyph-name="Odieresis" unicode="&#x2026;" horiz-adv-x="1446" 
d="M541 1548q0 26 17 44t42 18q26 0 42.5 -17.5t16.5 -42.5q0 -26 -16 -42.5t-41 -16.5q-26 0 -43.5 16.5t-17.5 40.5zM797 1548q0 26 17 44t42 18q26 0 44 -17.5t18 -42.5q0 -26 -18 -42.5t-44 -16.5q-25 0 -42 16.5t-17 40.5zM723 1393q135 0 251 -52t200.5 -144.5
t133 -219.5t48.5 -277q0 -157 -47.5 -290.5t-131.5 -230.5t-200 -151.5t-254 -54.5t-254 54.5t-200 151.5t-131.5 230.5t-47.5 290.5q0 150 48 277t133 219.5t201 144.5t251 52zM723 61q117 0 216 48.5t170 134t111 202.5t40 254q0 130 -40.5 241t-112.5 192t-170.5 126.5
t-213.5 45.5t-213.5 -45.5t-170.5 -126.5t-112.5 -192t-40.5 -241q0 -137 40 -254t111 -202.5t170 -134t216 -48.5z" />
    <glyph glyph-name="Oacute" unicode="&#xee;" horiz-adv-x="1446" 
d="M723 1393q135 0 251 -52t200.5 -144.5t133 -219.5t48.5 -277q0 -157 -47.5 -290.5t-131.5 -230.5t-200 -151.5t-254 -54.5t-254 54.5t-200 151.5t-131.5 230.5t-47.5 290.5q0 150 48 277t133 219.5t201 144.5t251 52zM723 61q117 0 216 48.5t170 134t111 202.5t40 254
q0 130 -40.5 241t-112.5 192t-170.5 126.5t-213.5 45.5t-213.5 -45.5t-170.5 -126.5t-112.5 -192t-40.5 -241q0 -137 40 -254t111 -202.5t170 -134t216 -48.5zM625 1462q14 18 29.5 40t31 44.5t31 44.5t28.5 41q25 35 44.5 51.5t37.5 16.5q22 0 36 -13.5t14 -31.5
q0 -13 -6.5 -27.5t-24.5 -30.5l-150 -135h-71z" />
    <glyph glyph-name="Ograve" unicode="&#xf1;" horiz-adv-x="1446" 
d="M723 1393q135 0 251 -52t200.5 -144.5t133 -219.5t48.5 -277q0 -157 -47.5 -290.5t-131.5 -230.5t-200 -151.5t-254 -54.5t-254 54.5t-200 151.5t-131.5 230.5t-47.5 290.5q0 150 48 277t133 219.5t201 144.5t251 52zM723 61q117 0 216 48.5t170 134t111 202.5t40 254
q0 130 -40.5 241t-112.5 192t-170.5 126.5t-213.5 45.5t-213.5 -45.5t-170.5 -126.5t-112.5 -192t-40.5 -241q0 -137 40 -254t111 -202.5t170 -134t216 -48.5zM735 1462l-149 135q-19 16 -25 30.5t-6 27.5q0 18 13.5 31.5t35.5 13.5q19 0 38 -16.5t44 -51.5q14 -19 29.5 -41
t31 -44.5t31 -44.5t29.5 -40h-72z" />
    <glyph glyph-name="Ocircumflex" unicode="&#xef;" horiz-adv-x="1446" 
d="M723 1393q135 0 251 -52t200.5 -144.5t133 -219.5t48.5 -277q0 -157 -47.5 -290.5t-131.5 -230.5t-200 -151.5t-254 -54.5t-254 54.5t-200 151.5t-131.5 230.5t-47.5 290.5q0 150 48 277t133 219.5t201 144.5t251 52zM723 61q117 0 216 48.5t170 134t111 202.5t40 254
q0 130 -40.5 241t-112.5 192t-170.5 126.5t-213.5 45.5t-213.5 -45.5t-170.5 -126.5t-112.5 -192t-40.5 -241q0 -137 40 -254t111 -202.5t170 -134t216 -48.5zM682 1632q11 11 24 17t25 6q26 0 47 -23l162 -170h-102l-111 99l-119 -99h-98z" />
    <glyph glyph-name="Otilde" unicode="&#xcd;" horiz-adv-x="1446" 
d="M723 1393q135 0 251 -52t200.5 -144.5t133 -219.5t48.5 -277q0 -157 -47.5 -290.5t-131.5 -230.5t-200 -151.5t-254 -54.5t-254 54.5t-200 151.5t-131.5 230.5t-47.5 290.5q0 150 48 277t133 219.5t201 144.5t251 52zM723 61q117 0 216 48.5t170 134t111 202.5t40 254
q0 130 -40.5 241t-112.5 192t-170.5 126.5t-213.5 45.5t-213.5 -45.5t-170.5 -126.5t-112.5 -192t-40.5 -241q0 -137 40 -254t111 -202.5t170 -134t216 -48.5zM541 1513q59 70 123 70q17 0 33 -4.5t32.5 -10t32.5 -10t33 -4.5q18 0 31.5 10.5t31.5 34.5l64 -49
q-28 -42 -57.5 -59.5t-67.5 -17.5q-18 0 -33 4t-29.5 8.5t-29.5 8t-33 3.5q-17 0 -34 -8.5t-40 -28.5z" />
    <glyph glyph-name="Udieresis" unicode="&#x2020;" horiz-adv-x="1212" 
d="M248 1366v-870q0 -77 4 -132t13 -95t24.5 -68.5t38.5 -53.5q45 -45 111.5 -65.5t166.5 -20.5t166.5 20t110.5 66q24 25 39.5 53.5t25 68.5t13.5 95t4 132v870h94v-870q0 -94 -5.5 -159t-18 -111.5t-34.5 -81t-55 -68.5q-52 -48 -140 -75.5t-200 -27.5t-200.5 27.5
t-141.5 75.5q-34 34 -55.5 68.5t-33.5 81t-16.5 111.5t-4.5 159v870h94zM416 1548q0 26 17 44t42 18q26 0 43 -17.5t17 -42.5q0 -26 -16.5 -42.5t-41.5 -16.5q-26 0 -43.5 16.5t-17.5 40.5zM674 1548q0 26 16 44t41 18q26 0 44 -17.5t18 -42.5q0 -26 -18 -42.5t-44 -16.5
q-25 0 -41 16.5t-16 40.5z" />
    <glyph glyph-name="Uacute" unicode="&#xf2;" horiz-adv-x="1212" 
d="M154 1366v-870q0 -94 4.5 -159t16.5 -111.5t33.5 -81t55.5 -68.5q53 -48 141.5 -75.5t200.5 -27.5t200 27.5t140 75.5q33 34 55 68.5t34.5 81t18 111.5t5.5 159v870h-94v-870q0 -77 -4 -132t-13.5 -95t-25 -68.5t-39.5 -53.5q-44 -46 -110.5 -66t-166.5 -20t-166.5 20.5
t-111.5 65.5q-23 25 -38.5 53.5t-24.5 68.5t-13 95t-4 132v870h-94zM537 1462q14 18 29 40t31 44.5t31.5 44.5t28.5 41q25 35 44.5 51.5t37.5 16.5q22 0 35.5 -13.5t13.5 -31.5q0 -13 -6 -27.5t-24 -30.5l-150 -135h-71z" />
    <glyph glyph-name="Ugrave" unicode="&#xf4;" horiz-adv-x="1212" 
d="M248 1366v-870q0 -77 4 -132t13 -95t24.5 -68.5t38.5 -53.5q45 -45 111.5 -65.5t166.5 -20.5t166.5 20t110.5 66q24 25 39.5 53.5t25 68.5t13.5 95t4 132v870h94v-870q0 -94 -5.5 -159t-18 -111.5t-34.5 -81t-55 -68.5q-52 -48 -140 -75.5t-200 -27.5t-200.5 27.5
t-141.5 75.5q-34 34 -55.5 68.5t-33.5 81t-16.5 111.5t-4.5 159v870h94zM608 1462l-149 135q-19 16 -25 30.5t-6 27.5q0 18 14 31.5t35 13.5q19 0 38 -16.5t44 -51.5q14 -19 29.5 -41t31 -44.5t31 -44.5t29.5 -40h-72z" />
    <glyph glyph-name="Ucircumflex" unicode="&#xf3;" horiz-adv-x="1212" 
d="M248 1366v-870q0 -77 4 -132t13 -95t24.5 -68.5t38.5 -53.5q45 -45 111.5 -65.5t166.5 -20.5t166.5 20t110.5 66q24 25 39.5 53.5t25 68.5t13.5 95t4 132v870h94v-870q0 -94 -5.5 -159t-18 -111.5t-34.5 -81t-55 -68.5q-52 -48 -140 -75.5t-200 -27.5t-200.5 27.5
t-141.5 75.5q-34 34 -55.5 68.5t-33.5 81t-16.5 111.5t-4.5 159v870h94zM559 1632q11 11 24 17t25 6q26 0 47 -23l162 -170h-102l-111 99l-119 -99h-98z" />
    <glyph glyph-name="Ydieresis" unicode="&#xd9;" horiz-adv-x="797" 
d="M737 1366h101l-377 -745v-621h-96v582l-406 784h102l345 -664zM209 1548q0 26 16 44t41 18q26 0 44 -17.5t18 -42.5q0 -26 -17.5 -42.5t-42.5 -16.5q-26 0 -42.5 16.5t-16.5 40.5zM465 1548q0 26 17 44t40 18q26 0 44 -17.5t18 -42.5q0 -26 -18 -42.5t-44 -16.5
q-23 0 -40 16.5t-17 40.5z" />
    <glyph glyph-name="a" unicode="a" horiz-adv-x="625" 
d="M512 0h-88v39q-18 -15 -42 -26q-20 -10 -47.5 -18.5t-60.5 -8.5q-48 0 -87.5 17t-68.5 48t-45 74t-16 94q0 66 24 119.5t67.5 91t105.5 58t137 20.5q17 0 37.5 -2.5t39.5 -5.5l44 -8v-492zM424 424q-7 1 -15 2q-7 1 -14 1.5t-12 0.5q-52 0 -95.5 -15t-74.5 -42.5
t-48.5 -65.5t-17.5 -84q0 -34 10.5 -62t28.5 -48t42.5 -31.5t52.5 -11.5q17 0 32.5 3t32.5 10t36 18.5t42 29.5v295z" />
    <glyph glyph-name="b" unicode="b" horiz-adv-x="637" 
d="M201 463q32 25 66 35t79 10q52 0 95 -18.5t74 -52t48 -80.5t17 -105t-18.5 -107t-51 -84.5t-77.5 -55t-99 -19.5q-36 0 -63.5 7t-47.5 15q-23 10 -39 21l-28 -29h-43v1366h88v-903zM201 111q21 -20 53.5 -31.5t71.5 -11.5q77 0 122.5 49.5t45.5 134.5q0 83 -43.5 130.5
t-120.5 47.5q-37 0 -67.5 -16t-61.5 -45v-258z" />
    <glyph glyph-name="c" unicode="c" horiz-adv-x="553" 
d="M530 104q-23 -33 -56 -59q-28 -23 -68 -41t-93 -18q-56 0 -103 19t-81 53t-53 81.5t-19 104.5t20 105.5t55 83t84.5 54t107.5 19.5q41 0 74.5 -10.5t57.5 -24.5q28 -16 50 -35l-49 -61q-16 16 -37 28q-18 11 -43.5 19t-57.5 8q-38 0 -70 -13.5t-55 -37.5t-36 -58.5
t-13 -76.5q0 -39 13 -71.5t35.5 -56t53.5 -37t68 -13.5q35 0 65 13t52 30q26 19 47 43z" />
    <glyph glyph-name="d" unicode="d" horiz-adv-x="666" 
d="M465 39q-38 -28 -78 -40.5t-86 -12.5q-52 0 -96.5 19.5t-77.5 54t-51.5 82t-18.5 102.5q0 57 20.5 106t56.5 84.5t86 55.5t108 20q37 0 70 -7t67 -26v889h88v-1366h-88v39zM465 373q-49 55 -135 55q-40 0 -74 -13t-58.5 -37t-38.5 -57t-14 -73q0 -39 13 -72t35.5 -56.5
t53 -36.5t66.5 -13q39 0 75.5 14.5t76.5 48.5v240z" />
    <glyph glyph-name="e" unicode="e" horiz-adv-x="569" 
d="M545 72q-19 -18 -44 -34t-53.5 -27.5t-58.5 -18t-59 -6.5q-57 0 -107 19.5t-86.5 54t-58 81t-21.5 99.5q0 57 22 106.5t60 86t91 57t114 20.5q81 0 126.5 -35.5t45.5 -97.5q0 -39 -24 -72.5t-69.5 -59t-111 -43t-149.5 -26.5q25 -51 72 -80.5t104 -29.5q18 0 40 4.5
t44.5 13t43.5 20.5t38 27zM344 432q-40 0 -75 -14.5t-62 -39t-43.5 -57.5t-18.5 -71q79 10 141 28q26 8 51.5 17.5t45 22t31.5 27t12 32.5q0 26 -22.5 40.5t-59.5 14.5z" />
    <glyph glyph-name="f" unicode="f" horiz-adv-x="344" 
d="M16 422v76h109v565q0 326 278 317q20 -1 39 -5t34 -9q18 -5 34 -12l-29 -82q-14 7 -30 13q-14 5 -31 9t-35 4q-172 0 -172 -239v-561h129v-76h-129v-1049h-88v1049h-109z" />
    <glyph glyph-name="g" unicode="g" horiz-adv-x="625" 
d="M399 -229q13 21 19 63t6 111v90q-47 -26 -80.5 -37.5t-69.5 -11.5q-48 0 -87.5 17t-68.5 48t-45 74t-16 94q0 65 24.5 118t69 91t106 59t134.5 21q20 0 41 -2.5t39 -5.5q21 -4 41 -8v-547q0 -46 -2.5 -81t-7.5 -62.5t-14 -49t-21 -39.5q-29 -40 -80.5 -65t-107.5 -25
q-54 0 -107 27.5t-96 81.5l59 57q38 -43 73 -63.5t73 -20.5q37 0 70 19t48 47zM424 424q-7 1 -15 2q-7 1 -14 1.5t-12 0.5q-52 0 -95.5 -15t-74.5 -42.5t-48.5 -65.5t-17.5 -84q0 -34 10.5 -62t28.5 -48t42.5 -31.5t52.5 -11.5q17 0 32.5 3t32.5 10t36 18.5t42 29.5v295z
" />
    <glyph glyph-name="h" unicode="h" horiz-adv-x="633" 
d="M203 451q24 17 52 30q24 11 55.5 20t66.5 9q81 0 116 -45t35 -141v-324h-90v324q0 59 -17 80.5t-59 21.5q-34 0 -62.5 -9.5t-50.5 -20.5q-26 -13 -46 -31v-365h-90v1366h90v-915z" />
    <glyph glyph-name="i" unicode="i" horiz-adv-x="315" 
d="M203 498v-498h-90v498h90zM96 836q0 26 18 43.5t44 17.5t43.5 -17.5t17.5 -43.5t-17.5 -43t-43.5 -17t-44 17t-18 43z" />
    <glyph glyph-name="j" unicode="j" horiz-adv-x="315" 
d="M203 498v-969q0 -40 -13 -71.5t-35.5 -53t-53.5 -32.5t-66 -11h-8t-12 1q-7 1 -15 1v74q7 0 13 -1q5 -1 10 -1h10q43 0 61.5 24t18.5 78v961h90zM96 836q0 26 18 43.5t44 17.5t43.5 -17.5t17.5 -43.5t-17.5 -43t-43.5 -17t-44 17t-18 43z" />
    <glyph glyph-name="k" unicode="k" horiz-adv-x="582" 
d="M420 498h123l-221 -181l245 -317h-112l-199 260l-55 -43v-217h-88v1366h88v-1049z" />
    <glyph glyph-name="l" unicode="l" horiz-adv-x="315" 
d="M203 0h-90v1366h90v-1366z" />
    <glyph glyph-name="m" unicode="m" horiz-adv-x="958" 
d="M387 510q40 0 72 -17.5t51 -54.5q46 34 94.5 53t97.5 19q81 0 116.5 -45t35.5 -141v-324h-90v324q0 59 -17.5 80.5t-58.5 21.5q-37 0 -77.5 -14.5t-82.5 -46.5v-365h-90v324q0 32 -4.5 51.5t-13.5 31t-23.5 15.5t-34.5 4q-38 0 -76 -13.5t-83 -47.5v-365h-90v498h90v-47
q52 35 95 47t89 12z" />
    <glyph glyph-name="n" unicode="n" horiz-adv-x="633" 
d="M203 451q24 17 52 30q24 11 55.5 20t66.5 9q81 0 116 -45t35 -141v-324h-90v324q0 59 -17 80.5t-59 21.5q-34 0 -62.5 -9.5t-50.5 -20.5q-26 -13 -46 -31v-365h-90v498h90v-47z" />
    <glyph glyph-name="o" unicode="o" horiz-adv-x="635" 
d="M317 508q55 0 102.5 -20.5t83 -55.5t55.5 -83t20 -103t-20.5 -103t-56 -82.5t-83 -54.5t-101.5 -20t-101 20t-82.5 54.5t-56 82.5t-20.5 103t20 103t55.5 83t83 55.5t101.5 20.5zM317 66q36 0 67 14t54.5 38.5t37 57.5t13.5 70q0 38 -13 71t-36.5 57.5t-55 39t-67.5 14.5
t-67.5 -14.5t-54.5 -39t-36.5 -57.5t-13.5 -71q0 -37 13.5 -70t37 -57.5t55 -38.5t66.5 -14z" />
    <glyph glyph-name="p" unicode="p" horiz-adv-x="651" 
d="M201 453q17 17 39 29q19 11 46.5 19.5t63.5 8.5q54 0 99 -19t77 -53t50 -81t18 -103q0 -57 -19 -106t-52 -85t-78 -56.5t-97 -20.5q-36 0 -63 7t-46 15q-22 10 -38 21v-656h-88v1125h88v-45zM201 131q21 -29 61.5 -45t85.5 -16q32 0 61 14.5t50.5 39.5t34 58.5t12.5 71.5
t-12.5 70.5t-34 56t-50.5 36.5t-63 13q-45 0 -82 -17.5t-63 -52.5v-229z" />
    <glyph glyph-name="q" unicode="q" horiz-adv-x="639" 
d="M438 -627v656q-19 -12 -35 -20.5t-31 -13.5t-31 -7t-34 -2q-56 0 -102 18.5t-79 53t-51 82.5t-18 106t18.5 106.5t51.5 83.5t79 54.5t101 19.5q38 0 67 -8t50 -18q25 -11 43 -27l27 41h32v-1125h-88zM438 367q-21 31 -53.5 47t-71.5 16q-37 0 -67.5 -13.5t-53 -38
t-35 -58t-12.5 -74.5q0 -40 12 -73t33 -56t51 -36t66 -13q42 0 75 15.5t56 47.5v236z" />
    <glyph glyph-name="r" unicode="r" horiz-adv-x="440" 
d="M203 412q2 4 16 19.5t39 33t60 31.5t79 14q10 0 17 -0.5t12 -1.5q6 -1 10 -2v-90l-16 2q-7 1 -15 1.5t-16 0.5q-53 0 -96.5 -26.5t-89.5 -88.5v-305h-90v498h90v-86z" />
    <glyph glyph-name="s" unicode="s" horiz-adv-x="567" 
d="M74 137q27 -19 60 -35q28 -14 63.5 -25t76.5 -11q30 0 57 6.5t48 18t33 27t12 34.5q0 52 -74 61l-145 20q-66 10 -101.5 38t-35.5 85q0 35 14.5 63t41.5 48t64 30.5t82 10.5q41 0 77.5 -10t65 -23.5t48 -25.5t26.5 -17l-43 -70l-22.5 15t-40.5 22t-53.5 20t-61.5 9
q-24 0 -44.5 -5.5t-35.5 -15t-23.5 -22t-8.5 -27.5q0 -18 17 -29.5t62 -17.5l134 -18q69 -9 106 -44.5t37 -92.5q0 -78 -65.5 -124t-178.5 -46q-31 0 -59 4.5t-56.5 14t-58.5 24.5t-65 37z" />
    <glyph glyph-name="t" unicode="t" horiz-adv-x="356" 
d="M23 422v76h94v465l88 18v-483h108v-76h-108v-332q0 -20 28 -20q7 0 22 0.5t32 2.5q19 2 41 3v-76q-12 -2 -30 -4.5t-36.5 -4.5t-34 -3.5t-22.5 -1.5q-50 0 -69 22t-19 78v336h-94z" />
    <glyph glyph-name="u" unicode="u" horiz-adv-x="633" 
d="M430 47q-24 -16 -52 -29q-24 -11 -55.5 -20.5t-66.5 -9.5q-82 0 -117 45t-35 141v324h91v-324q0 -60 17 -81t58 -21q34 0 63 10t51 21q26 13 46 30v365h90v-498h-90v47z" />
    <glyph glyph-name="v" unicode="v" horiz-adv-x="590" 
d="M485 498h80l-256 -525h-39l-245 525h100l172 -369z" />
    <glyph glyph-name="w" unicode="w" horiz-adv-x="809" 
d="M262 -27h-37l-198 525h96l129 -336l137 336h37l131 -338l6 15t16 39t22.5 54.5t25.5 61.5q31 74 69 168h86l-213 -525h-34l-134 334z" />
    <glyph glyph-name="x" unicode="x" horiz-adv-x="584" 
d="M20 498h115l158 -181l158 181h96l-207 -240l225 -258h-114l-168 195l-168 -195h-97l215 248z" />
    <glyph glyph-name="y" unicode="y" horiz-adv-x="594" 
d="M281 14l-256 484h94l203 -381l147 381h88l-444 -1125h-82z" />
    <glyph glyph-name="z" unicode="z" horiz-adv-x="532" 
d="M63 422v76h381l23 -41l-297 -377h303v-80h-412l-18 53l291 369h-271z" />
    <glyph glyph-name="ae" unicode="&#xbe;" horiz-adv-x="942" 
d="M696 -14q-60 0 -117 24t-98 72q-42 -43 -93.5 -69.5t-111.5 -26.5q-49 0 -89.5 17t-69 48t-44.5 74t-16 94q0 66 24 119.5t67.5 91t105.5 58t137 20.5q18 0 39 -2.5t39 -5.5q21 -4 43 -8v-54q84 72 199 72q78 0 125 -35.5t47 -97.5q0 -79 -92 -131.5t-263 -69.5
q12 -25 30.5 -45.5t42 -34.5t50 -22t54.5 -8q19 0 41 4.5t44 13t42.5 20.5t37.5 27l39 -59q-19 -19 -44 -35t-52.5 -27.5t-57.5 -17.5t-59 -6zM424 424q-7 1 -15 2q-7 1 -14 1.5t-12 0.5q-52 0 -95.5 -15t-74.5 -42.5t-48.5 -65.5t-17.5 -84q0 -34 10.5 -62t28.5 -48
t42.5 -31.5t52.5 -11.5q17 0 32.5 3t32.5 10t36 18.5t42 29.5v295zM711 432q-40 0 -75.5 -14.5t-62.5 -39t-43 -57.5t-18 -71q79 10 141 28q26 8 51.5 17.5t45 22t31.5 27t12 32.5q0 26 -22.5 40.5t-59.5 14.5z" />
    <glyph glyph-name="oe" unicode="&#xcf;" horiz-adv-x="1010" 
d="M977 72q-19 -18 -44 -34t-53.5 -27.5t-58.5 -18t-59 -6.5q-72 0 -132 30.5t-95 81.5q-36 -52 -92.5 -82t-125.5 -30q-54 0 -101 20t-82.5 54.5t-56 82.5t-20.5 103t20 103t55.5 83t83 55.5t101.5 20.5q70 0 126.5 -32.5t91.5 -86.5q38 56 100.5 88.5t140.5 32.5
q81 0 126.5 -35.5t45.5 -97.5q0 -39 -24 -72.5t-69.5 -59t-111 -43t-149.5 -26.5q25 -51 72 -80.5t104 -29.5q18 0 40 4.5t44.5 13t43.5 20.5t38 27zM776 432q-40 0 -75 -14.5t-62 -39t-43 -57.5t-18 -71q78 10 140 28q26 8 51.5 17.5t45 22t31.5 27t12 32.5
q0 26 -22.5 40.5t-59.5 14.5zM317 66q36 0 67 14t54.5 38.5t37 57.5t13.5 70q0 38 -13 71t-36.5 57.5t-55 39t-67.5 14.5t-67.5 -14.5t-54.5 -39t-36.5 -57.5t-13.5 -71q0 -37 13.5 -70t37 -57.5t55 -38.5t66.5 -14z" />
    <glyph glyph-name="oslash" unicode="&#xbf;" horiz-adv-x="635" 
d="M317 508q39 0 75 -10.5t65 -30.5l26 31h97l-68 -78q31 -35 48.5 -79t17.5 -95q0 -55 -20.5 -103t-56 -82.5t-83 -54.5t-101.5 -20q-38 0 -74 10t-67 29l-20 -25h-99l64 74q-31 34 -47.5 77.5t-16.5 94.5q0 55 20 103t55.5 83t83 55.5t101.5 20.5zM317 66q36 0 67 14
t54.5 38.5t37 57.5t13.5 70q0 29 -8.5 57t-23.5 49l-226 -264q39 -22 86 -22zM145 246q0 -29 9 -56t24 -49l225 262q-38 25 -86 25q-36 0 -67.5 -14.5t-54.5 -39t-36.5 -57.5t-13.5 -71z" />
    <glyph glyph-name="germandbls" unicode="&#xa7;" horiz-adv-x="901" 
d="M651 1094q0 -175 -162 -252q79 -17 143 -54t109 -90.5t69 -122t24 -147.5q0 -90 -29 -169.5t-79.5 -139.5t-117.5 -94.5t-143 -34.5q-60 0 -113 20.5t-102 59.5q9 17 20.5 34.5t20.5 34.5q24 -18 45 -30t41 -20t40.5 -11.5t43.5 -3.5q59 0 110.5 27t89.5 74t60 111
t22 138q0 91 -37.5 165t-109.5 122q-51 32 -132 51.5t-183 21.5v93q139 9 210.5 64.5t71.5 154.5q0 44 -12.5 81t-35 64t-54 42t-68.5 15q-52 0 -88 -20t-58 -53.5t-32 -77.5t-10 -92v-1055h-92v1055q0 70 16.5 129t50.5 102t86.5 67.5t124.5 24.5q57 0 105 -21t82.5 -58.5
t53.5 -90t19 -114.5z" />
    <glyph glyph-name="dotlessi" unicode="&#xf5;" horiz-adv-x="324" 
d="M207 498v-498h-90v498h90z" />
    <glyph glyph-name="dotlessi" unicode="&#x131;" horiz-adv-x="324" 
d="M207 498v-498h-90v498h90z" />
    <glyph glyph-name="fi" unicode="&#xde;" horiz-adv-x="659" 
d="M553 498v-498h-88v498h88zM442 836q0 26 18 43.5t44 17.5q25 0 42 -17.5t17 -43.5t-17 -43t-42 -17q-26 0 -44 17t-18 43zM16 422v76h109v565q0 326 278 317q20 -1 39 -5t34 -9q18 -5 34 -12l-29 -82q-14 7 -30 13q-14 5 -31 9t-35 4q-172 0 -172 -239v-561h129v-76h-129
v-1049h-88v1049h-109z" />
    <glyph glyph-name="fi" unicode="&#xfb01;" horiz-adv-x="659" 
d="M553 498v-498h-88v498h88zM442 836q0 26 18 43.5t44 17.5q25 0 42 -17.5t17 -43.5t-17 -43t-42 -17q-26 0 -44 17t-18 43zM16 422v76h109v565q0 326 278 317q20 -1 39 -5t34 -9q18 -5 34 -12l-29 -82q-14 7 -30 13q-14 5 -31 9t-35 4q-172 0 -172 -239v-561h129v-76h-129
v-1049h-88v1049h-109z" />
    <glyph glyph-name="fl" unicode="&#xdf;" horiz-adv-x="666" 
d="M125 -627v1049h-109v76h109v567q0 74 15 132.5t47.5 99.5t83.5 62.5t124 20.5q16 0 36 -3.5t39 -8t35 -10t23 -10.5q13 -8 19 -22t6 -48v-1278h-86v1262q0 14 -2 17.5t-8 8.5q-18 10 -62 10q-53 0 -88 -17.5t-56 -49t-29.5 -75.5t-8.5 -97v-561h131v-76h-131v-1049h-88z
" />
    <glyph glyph-name="fl" unicode="&#xfb02;" horiz-adv-x="666" 
d="M125 -627v1049h-109v76h109v567q0 74 15 132.5t47.5 99.5t83.5 62.5t124 20.5q16 0 36 -3.5t39 -8t35 -10t23 -10.5q13 -8 19 -22t6 -48v-1278h-86v1262q0 14 -2 17.5t-8 8.5q-18 10 -62 10q-53 0 -88 -17.5t-56 -49t-29.5 -75.5t-8.5 -97v-561h131v-76h-131v-1049h-88z
" />
    <glyph glyph-name="adieresis" unicode="&#x160;" horiz-adv-x="625" 
d="M109 711q0 26 17 43.5t42 17.5q26 0 42.5 -17.5t16.5 -41.5q0 -26 -16 -44t-41 -18q-26 0 -43.5 17.5t-17.5 42.5zM365 711q0 26 17 43.5t42 17.5q26 0 43.5 -17.5t17.5 -41.5q0 -26 -17.5 -44t-43.5 -18q-25 0 -42 17.5t-17 42.5zM512 0h-88v39q-18 -15 -42 -26
q-20 -10 -47.5 -18.5t-60.5 -8.5q-48 0 -87.5 17t-68.5 48t-45 74t-16 94q0 66 24 119.5t67.5 91t105.5 58t137 20.5q17 0 37.5 -2.5t39.5 -5.5l44 -8v-492zM424 424q-7 1 -15 2q-7 1 -14 1.5t-12 0.5q-52 0 -95.5 -15t-74.5 -42.5t-48.5 -65.5t-17.5 -84q0 -34 10.5 -62
t28.5 -48t42.5 -31.5t52.5 -11.5q17 0 32.5 3t32.5 10t36 18.5t42 29.5v295z" />
    <glyph glyph-name="aacute" unicode="&#x2021;" horiz-adv-x="625" 
d="M512 492l-44 8q-19 3 -39.5 5.5t-37.5 2.5q-75 0 -137 -20.5t-105.5 -58t-67.5 -91t-24 -119.5q0 -51 16 -94t45 -74t68.5 -48t87.5 -17q33 0 60.5 8.5t47.5 18.5q24 11 42 26v-39h88v492zM424 129q-23 -18 -42 -29.5t-36 -18.5t-32.5 -10t-32.5 -3q-28 0 -52.5 11.5
t-42.5 31.5t-28.5 48t-10.5 62q0 46 17.5 84t48.5 65.5t74.5 42.5t95.5 15q5 0 12 -0.5t14 -1.5q8 -1 15 -2v-295zM238 596q14 18 29 40t31 44.5t31.5 44.5t28.5 41q25 35 44.5 51.5t37.5 16.5q22 0 35.5 -13.5t13.5 -32.5q0 -12 -6 -26.5t-24 -30.5l-150 -135h-71z" />
    <glyph glyph-name="agrave" unicode="&#x2c6;" horiz-adv-x="625" 
d="M512 0h-88v39q-18 -15 -42 -26q-20 -10 -47.5 -18.5t-60.5 -8.5q-48 0 -87.5 17t-68.5 48t-45 74t-16 94q0 66 24 119.5t67.5 91t105.5 58t137 20.5q17 0 37.5 -2.5t39.5 -5.5l44 -8v-492zM424 424q-7 1 -15 2q-7 1 -14 1.5t-12 0.5q-52 0 -95.5 -15t-74.5 -42.5
t-48.5 -65.5t-17.5 -84q0 -34 10.5 -62t28.5 -48t42.5 -31.5t52.5 -11.5q17 0 32.5 3t32.5 10t36 18.5t42 29.5v295zM307 596l-149 135q-19 16 -25 30.5t-6 26.5q0 19 13.5 32.5t35.5 13.5q19 0 38 -16.5t44 -51.5q14 -19 29.5 -41t31 -44.5t31 -44.5t29.5 -40h-72z" />
    <glyph glyph-name="acircumflex" unicode="&#x2030;" horiz-adv-x="625" 
d="M512 0h-88v39q-18 -15 -42 -26q-20 -10 -47.5 -18.5t-60.5 -8.5q-48 0 -87.5 17t-68.5 48t-45 74t-16 94q0 66 24 119.5t67.5 91t105.5 58t137 20.5q17 0 37.5 -2.5t39.5 -5.5l44 -8v-492zM424 424q-7 1 -15 2q-7 1 -14 1.5t-12 0.5q-52 0 -95.5 -15t-74.5 -42.5
t-48.5 -65.5t-17.5 -84q0 -34 10.5 -62t28.5 -48t42.5 -31.5t52.5 -11.5q17 0 32.5 3t32.5 10t36 18.5t42 29.5v295zM242 791q22 22 49 22q25 0 47 -22l162 -170h-103l-110 98l-119 -98h-98z" />
    <glyph glyph-name="atilde" unicode="&#x2039;" horiz-adv-x="625" 
d="M512 0h-88v39q-18 -15 -42 -26q-20 -10 -47.5 -18.5t-60.5 -8.5q-48 0 -87.5 17t-68.5 48t-45 74t-16 94q0 66 24 119.5t67.5 91t105.5 58t137 20.5q17 0 37.5 -2.5t39.5 -5.5l44 -8v-492zM424 424q-7 1 -15 2q-7 1 -14 1.5t-12 0.5q-52 0 -95.5 -15t-74.5 -42.5
t-48.5 -65.5t-17.5 -84q0 -34 10.5 -62t28.5 -48t42.5 -31.5t52.5 -11.5q17 0 32.5 3t32.5 10t36 18.5t42 29.5v295zM100 698q29 34 60.5 52t62.5 18q17 0 33 -4.5t32.5 -10t32.5 -10t33 -4.5q19 0 32 10.5t32 34.5l63 -49q-28 -42 -57 -60t-68 -18q-18 0 -33 4t-29.5 8.5
t-29.5 8.5t-33 4q-17 0 -33.5 -8.5t-39.5 -28.5z" />
    <glyph glyph-name="aring" unicode="&#x152;" horiz-adv-x="625" 
d="M512 492l-44 8q-19 3 -39.5 5.5t-37.5 2.5q-75 0 -137 -20.5t-105.5 -58t-67.5 -91t-24 -119.5q0 -51 16 -94t45 -74t68.5 -48t87.5 -17q33 0 60.5 8.5t47.5 18.5q24 11 42 26v-39h88v492zM424 129q-23 -18 -42 -29.5t-36 -18.5t-32.5 -10t-32.5 -3q-28 0 -52.5 11.5
t-42.5 31.5t-28.5 48t-10.5 62q0 46 17.5 84t48.5 65.5t74.5 42.5t95.5 15q5 0 12 -0.5t14 -1.5q8 -1 15 -2v-295zM307 600q-26 0 -48.5 9.5t-39 26.5t-26 39.5t-9.5 47.5q0 26 10 48t26.5 38t39 25.5t47.5 9.5q26 0 48 -9.5t39 -25.5t26.5 -38t9.5 -48q0 -25 -9.5 -47.5
t-26 -39.5t-39 -26.5t-48.5 -9.5zM307 774q-21 0 -36 -15.5t-15 -35.5q0 -22 15 -37.5t36 -15.5q22 0 36.5 15.5t14.5 37.5q0 20 -14.5 35.5t-36.5 15.5z" />
    <glyph glyph-name="ccedilla" horiz-adv-x="553" 
d="M530 104q-18 -25 -43 -47q-21 -19 -51.5 -37.5t-70.5 -27.5l-50 -70q48 -8 75.5 -35t27.5 -67q0 -54 -41.5 -87.5t-112.5 -33.5q-35 0 -68 13t-59 30l43 59q22 -12 40.5 -20t41.5 -8q31 0 51.5 13t20.5 32q0 17 -20 30t-54 13q-8 0 -20 -0.5t-25 -2.5q-15 -2 -31 -3
l92 133q-49 6 -89.5 27t-69 54.5t-44.5 78t-16 96.5q0 57 20 105.5t55 83t84.5 54t107.5 19.5q41 0 74.5 -10.5t57.5 -24.5q28 -16 50 -35l-49 -61q-16 16 -37 28q-18 11 -43.5 19t-57.5 8q-38 0 -70 -13.5t-55 -37.5t-36 -58.5t-13 -76.5q0 -39 13 -71.5t35.5 -56t53.5 -37
t68 -13.5q35 0 65 13t52 30q26 19 47 43z" />
    <glyph glyph-name="edieresis" unicode="&#x2018;" horiz-adv-x="569" 
d="M109 711q0 26 17 43.5t42 17.5q26 0 43.5 -17.5t17.5 -41.5q0 -26 -17 -44t-42 -18q-26 0 -43.5 17.5t-17.5 42.5zM367 711q0 26 16 43.5t41 17.5q26 0 43.5 -17.5t17.5 -41.5q0 -26 -17.5 -44t-43.5 -18q-25 0 -41 17.5t-16 42.5zM545 72q-19 -18 -44 -34t-53.5 -27.5
t-58.5 -18t-59 -6.5q-57 0 -107 19.5t-86.5 54t-58 81t-21.5 99.5q0 57 22 106.5t60 86t91 57t114 20.5q81 0 126.5 -35.5t45.5 -97.5q0 -39 -24 -72.5t-69.5 -59t-111 -43t-149.5 -26.5q25 -51 72 -80.5t104 -29.5q18 0 40 4.5t44.5 13t43.5 20.5t38 27zM344 432
q-40 0 -75 -14.5t-62 -39t-43.5 -57.5t-18.5 -71q79 10 141 28q26 8 51.5 17.5t45 22t31.5 27t12 32.5q0 26 -22.5 40.5t-59.5 14.5z" />
    <glyph glyph-name="eacute" horiz-adv-x="569" 
d="M504 131q-17 -15 -38 -27t-43.5 -20.5t-44.5 -13t-40 -4.5q-57 0 -104 29.5t-72 80.5q84 9 149.5 26.5t111 43t69.5 59t24 72.5q0 62 -45.5 97.5t-126.5 35.5q-61 0 -114 -20.5t-91 -57t-60 -86t-22 -106.5q0 -53 21.5 -99.5t58 -81t86.5 -54t107 -19.5q29 0 59 6.5
t58.5 18t53.5 27.5t44 34zM344 432q37 0 59.5 -14.5t22.5 -40.5q0 -18 -12 -32.5t-31.5 -27t-45 -22t-51.5 -17.5q-62 -18 -141 -28q2 38 18.5 71t43.5 57.5t62 39t75 14.5zM229 596q14 18 29.5 40t31 44.5t31 44.5t29.5 41q25 35 44.5 51.5t37.5 16.5q22 0 35.5 -13.5
t13.5 -32.5q0 -12 -6 -26.5t-24 -30.5l-150 -135h-72z" />
    <glyph glyph-name="egrave" horiz-adv-x="569" 
d="M545 72q-19 -18 -44 -34t-53.5 -27.5t-58.5 -18t-59 -6.5q-57 0 -107 19.5t-86.5 54t-58 81t-21.5 99.5q0 57 22 106.5t60 86t91 57t114 20.5q81 0 126.5 -35.5t45.5 -97.5q0 -39 -24 -72.5t-69.5 -59t-111 -43t-149.5 -26.5q25 -51 72 -80.5t104 -29.5q18 0 40 4.5
t44.5 13t43.5 20.5t38 27zM344 432q-40 0 -75 -14.5t-62 -39t-43.5 -57.5t-18.5 -71q79 10 141 28q26 8 51.5 17.5t45 22t31.5 27t12 32.5q0 26 -22.5 40.5t-59.5 14.5zM307 596l-149 135q-19 16 -25 30.5t-6 26.5q0 19 13.5 32.5t35.5 13.5q19 0 38 -16.5t44 -51.5
q14 -19 29.5 -41t31 -44.5t31 -44.5t29.5 -40h-72z" />
    <glyph glyph-name="ecircumflex" horiz-adv-x="569" 
d="M545 72q-19 -18 -44 -34t-53.5 -27.5t-58.5 -18t-59 -6.5q-57 0 -107 19.5t-86.5 54t-58 81t-21.5 99.5q0 57 22 106.5t60 86t91 57t114 20.5q81 0 126.5 -35.5t45.5 -97.5q0 -39 -24 -72.5t-69.5 -59t-111 -43t-149.5 -26.5q25 -51 72 -80.5t104 -29.5q18 0 40 4.5
t44.5 13t43.5 20.5t38 27zM344 432q-40 0 -75 -14.5t-62 -39t-43.5 -57.5t-18.5 -71q79 10 141 28q26 8 51.5 17.5t45 22t31.5 27t12 32.5q0 26 -22.5 40.5t-59.5 14.5zM254 791q11 11 24 16.5t25 5.5q25 0 47 -22l162 -170h-102l-111 98l-119 -98h-98z" />
    <glyph glyph-name="idieresis" unicode="&#x2022;" horiz-adv-x="315" 
d="M203 498v-498h-90v498h90zM-31 711q0 26 17.5 43.5t42.5 17.5q26 0 42.5 -17.5t16.5 -41.5q0 -26 -16.5 -44t-40.5 -18q-26 0 -44 17.5t-18 42.5zM227 711q0 26 16.5 43.5t41.5 17.5q26 0 43.5 -17.5t17.5 -41.5q0 -26 -17.5 -44t-43.5 -18q-25 0 -41.5 17.5t-16.5 42.5z
" />
    <glyph glyph-name="iacute" unicode="&#x2019;" horiz-adv-x="315" 
d="M113 498v-498h88v498h-88zM113 596q14 18 29.5 40t31 44.5t31 44.5t28.5 41q25 35 44.5 51.5t37.5 16.5q22 0 36 -13.5t14 -32.5q0 -12 -6.5 -26.5t-24.5 -30.5l-150 -135h-71z" />
    <glyph glyph-name="igrave" unicode="&#x201c;" horiz-adv-x="315" 
d="M203 498v-498h-88v498h88zM131 596l-149 135q-19 16 -25 30.5t-6 26.5q0 19 13.5 32.5t35.5 13.5q19 0 38 -16.5t44 -51.5q14 -19 29.5 -41t31 -44.5t31 -44.5t29.5 -40h-72z" />
    <glyph glyph-name="icircumflex" unicode="&#x201d;" horiz-adv-x="315" 
d="M205 498v-498h-90v498h90zM115 791q22 22 49 22q25 0 47 -22l162 -170h-103l-110 98l-119 -98h-98z" />
    <glyph glyph-name="ntilde" unicode="&#x2013;" horiz-adv-x="633" 
d="M203 451q24 17 52 30q24 11 55.5 20t66.5 9q81 0 116 -45t35 -141v-324h-90v324q0 59 -17 80.5t-59 21.5q-34 0 -62.5 -9.5t-50.5 -20.5q-26 -13 -46 -31v-365h-90v498h90v-47zM123 698q29 34 60.5 52t62.5 18q17 0 33 -4.5t32.5 -10t32.5 -10t33 -4.5q18 0 31.5 10.5
t31.5 34.5l64 -49q-28 -42 -57.5 -60t-67.5 -18q-18 0 -33 4t-29.5 8.5t-29.5 8.5t-33 4q-17 0 -34 -8.5t-40 -28.5z" />
    <glyph glyph-name="odieresis" unicode="&#x161;" horiz-adv-x="635" 
d="M131 711q0 26 17.5 43.5t41.5 17.5q26 0 43 -17.5t17 -41.5q0 -26 -16.5 -44t-40.5 -18q-26 0 -44 17.5t-18 42.5zM389 711q0 26 16.5 43.5t40.5 17.5q26 0 44 -17.5t18 -41.5q0 -26 -18 -44t-44 -18q-24 0 -40.5 17.5t-16.5 42.5zM317 508q55 0 102.5 -20.5t83 -55.5
t55.5 -83t20 -103t-20.5 -103t-56 -82.5t-83 -54.5t-101.5 -20t-101 20t-82.5 54.5t-56 82.5t-20.5 103t20 103t55.5 83t83 55.5t101.5 20.5zM317 66q36 0 67 14t54.5 38.5t37 57.5t13.5 70q0 38 -13 71t-36.5 57.5t-55 39t-67.5 14.5t-67.5 -14.5t-54.5 -39t-36.5 -57.5
t-13.5 -71q0 -37 13.5 -70t37 -57.5t55 -38.5t66.5 -14z" />
    <glyph glyph-name="oacute" unicode="&#x2014;" horiz-adv-x="635" 
d="M317 508q-54 0 -101.5 -20.5t-83 -55.5t-55.5 -83t-20 -103t20.5 -103t56 -82.5t82.5 -54.5t101 -20t101.5 20t83 54.5t56 82.5t20.5 103t-20 103t-55.5 83t-83 55.5t-102.5 20.5zM317 66q-35 0 -66.5 14t-55 38.5t-37 57.5t-13.5 70q0 38 13.5 71t36.5 57.5t54.5 39
t67.5 14.5t67.5 -14.5t55 -39t36.5 -57.5t13 -71q0 -37 -13.5 -70t-37 -57.5t-54.5 -38.5t-67 -14zM238 596q14 18 29 40t31 44.5t31.5 44.5t28.5 41q25 35 44.5 51.5t37.5 16.5q22 0 35.5 -13.5t13.5 -32.5q0 -12 -6 -26.5t-24 -30.5l-150 -135h-71z" />
    <glyph glyph-name="ograve" unicode="&#x2dc;" horiz-adv-x="635" 
d="M317 508q55 0 102.5 -20.5t83 -55.5t55.5 -83t20 -103t-20.5 -103t-56 -82.5t-83 -54.5t-101.5 -20t-101 20t-82.5 54.5t-56 82.5t-20.5 103t20 103t55.5 83t83 55.5t101.5 20.5zM317 66q36 0 67 14t54.5 38.5t37 57.5t13.5 70q0 38 -13 71t-36.5 57.5t-55 39t-67.5 14.5
t-67.5 -14.5t-54.5 -39t-36.5 -57.5t-13.5 -71q0 -37 13.5 -70t37 -57.5t55 -38.5t66.5 -14zM297 596l-150 135q-18 16 -24 30.5t-6 26.5q0 19 13.5 32.5t35.5 13.5q18 0 37.5 -16.5t44.5 -51.5q14 -19 29.5 -41t31 -44.5t31 -44.5t29.5 -40h-72z" />
    <glyph glyph-name="ocircumflex" unicode="&#x2122;" horiz-adv-x="635" 
d="M317 508q55 0 102.5 -20.5t83 -55.5t55.5 -83t20 -103t-20.5 -103t-56 -82.5t-83 -54.5t-101.5 -20t-101 20t-82.5 54.5t-56 82.5t-20.5 103t20 103t55.5 83t83 55.5t101.5 20.5zM317 66q36 0 67 14t54.5 38.5t37 57.5t13.5 70q0 38 -13 71t-36.5 57.5t-55 39t-67.5 14.5
t-67.5 -14.5t-54.5 -39t-36.5 -57.5t-13.5 -71q0 -37 13.5 -70t37 -57.5t55 -38.5t66.5 -14zM274 791q24 22 50 22q23 0 47 -22l161 -170h-102l-111 98l-118 -98h-99z" />
    <glyph glyph-name="otilde" unicode="&#x203a;" horiz-adv-x="635" 
d="M317 508q55 0 102.5 -20.5t83 -55.5t55.5 -83t20 -103t-20.5 -103t-56 -82.5t-83 -54.5t-101.5 -20t-101 20t-82.5 54.5t-56 82.5t-20.5 103t20 103t55.5 83t83 55.5t101.5 20.5zM317 66q36 0 67 14t54.5 38.5t37 57.5t13.5 70q0 38 -13 71t-36.5 57.5t-55 39t-67.5 14.5
t-67.5 -14.5t-54.5 -39t-36.5 -57.5t-13.5 -71q0 -37 13.5 -70t37 -57.5t55 -38.5t66.5 -14zM127 698q29 34 60.5 52t62.5 18q17 0 33 -4.5t32.5 -10t32.5 -10t33 -4.5q19 0 32 10.5t31 34.5l64 -49q-28 -42 -57.5 -60t-67.5 -18q-18 0 -33 4t-29.5 8.5t-29.5 8.5t-33 4
q-17 0 -34 -8.5t-40 -28.5z" />
    <glyph glyph-name="udieresis" unicode="&#x178;" horiz-adv-x="633" 
d="M121 711q0 26 17 43.5t42 17.5q26 0 43 -17.5t17 -41.5q0 -26 -16.5 -44t-41.5 -18q-26 0 -43.5 17.5t-17.5 42.5zM379 711q0 26 16 43.5t41 17.5q26 0 44 -17.5t18 -41.5q0 -26 -18 -44t-44 -18q-25 0 -41 17.5t-16 42.5zM430 47q-24 -16 -52 -29q-24 -11 -55.5 -20.5
t-66.5 -9.5q-82 0 -117 45t-35 141v324h91v-324q0 -60 17 -81t58 -21q34 0 63 10t51 21q26 13 46 30v365h90v-498h-90v47z" />
    <glyph glyph-name="uacute" unicode="&#x153;" horiz-adv-x="633" 
d="M430 0h90v498h-90v-365q-20 -17 -46 -30q-22 -11 -51 -21t-63 -10q-41 0 -58 21t-17 81v324h-91v-324q0 -96 35 -141t117 -45q35 0 66.5 9.5t55.5 20.5q28 13 52 29v-47zM238 596q14 18 29 40t31 44.5t31.5 44.5t28.5 41q25 35 44.5 51.5t37.5 16.5q22 0 35.5 -13.5
t13.5 -32.5q0 -12 -6 -26.5t-24 -30.5l-150 -135h-71z" />
    <glyph glyph-name="ugrave" horiz-adv-x="633" 
d="M430 47q-24 -16 -52 -29q-24 -11 -55.5 -20.5t-66.5 -9.5q-82 0 -117 45t-35 141v324h91v-324q0 -60 17 -81t58 -21q34 0 63 10t51 21q26 13 46 30v365h90v-498h-90v47zM295 596l-150 135q-18 16 -24 30.5t-6 26.5q0 19 13.5 32.5t35.5 13.5q18 0 37.5 -16.5t44.5 -51.5
q14 -19 29.5 -41t31 -44.5t31 -44.5t29.5 -40h-72z" />
    <glyph glyph-name="ucircumflex" horiz-adv-x="633" 
d="M430 47q-24 -16 -52 -29q-24 -11 -55.5 -20.5t-66.5 -9.5q-82 0 -117 45t-35 141v324h91v-324q0 -60 17 -81t58 -21q34 0 63 10t51 21q26 13 46 30v365h90v-498h-90v47zM268 791q24 22 49 22q24 0 48 -22l161 -170h-102l-111 98l-118 -98h-99z" />
    <glyph glyph-name="ydieresis" unicode="&#xd8;" horiz-adv-x="594" 
d="M281 14l-256 484h94l203 -381l147 381h88l-444 -1125h-82zM109 711q0 26 17 43.5t42 17.5q26 0 42.5 -17.5t16.5 -41.5q0 -26 -16 -44t-41 -18q-26 0 -43.5 17.5t-17.5 42.5zM365 711q0 26 17 43.5t42 17.5q26 0 43.5 -17.5t17.5 -41.5q0 -26 -17.5 -44t-43.5 -18
q-25 0 -42 17.5t-17 42.5z" />
    <glyph glyph-name="one" unicode="1" horiz-adv-x="399" 
d="M88 1028l-20 41l127 92h51v-1161h-88v1063z" />
    <glyph glyph-name="two" unicode="2" horiz-adv-x="811" 
d="M717 88v-88h-660q0 62 9.5 109t26.5 84.5t41 68t54 60.5q22 21 76.5 66.5t153.5 117.5q55 41 95 80t66.5 79t39 81.5t12.5 87.5q0 53 -14 96.5t-40.5 74t-64.5 47.5t-86 17q-53 0 -93.5 -18.5t-70.5 -46.5t-50 -62t-33 -65.5t-19.5 -55.5t-9.5 -33l-82 17q40 168 130 256
t224 88q67 0 122.5 -21.5t95 -62t61.5 -99t22 -132.5q0 -72 -19 -127.5t-53 -102t-80.5 -87.5t-101.5 -83q-54 -41 -94 -72.5t-69.5 -56.5t-50.5 -44.5t-36 -37.5q-26 -31 -41.5 -62t-23.5 -73h563z" />
    <glyph glyph-name="three" unicode="3" horiz-adv-x="772" 
d="M238 653q59 -2 116.5 13t103 46t73.5 77t28 104q0 40 -13.5 72.5t-38 55.5t-59 35.5t-75.5 12.5q-34 0 -67.5 -14t-63 -39.5t-52 -59.5t-36.5 -75l-78 39q51 115 127.5 172t175.5 57q60 0 109.5 -18.5t84.5 -51.5t54.5 -79.5t19.5 -102.5q0 -87 -45 -153t-139 -111
q51 -14 92 -42.5t69.5 -69.5t44 -92.5t15.5 -111.5q0 -70 -26.5 -130.5t-72 -105t-107.5 -70t-134 -25.5q-62 0 -117.5 22.5t-99.5 62.5t-73.5 95.5t-39.5 122.5l90 18q6 -53 27 -97t52.5 -75.5t72 -49t86.5 -17.5q52 0 97.5 19t79 52.5t52.5 78.5t19 97q0 83 -23.5 136.5
t-68.5 83.5t-110.5 40t-149.5 5v73z" />
    <glyph glyph-name="four" unicode="4" horiz-adv-x="797" 
d="M778 387v-82h-188v-305h-90v305h-467v74l499 782h58v-774h188zM500 387v580l-371 -580h371z" />
    <glyph glyph-name="five" unicode="5" horiz-adv-x="811" 
d="M96 530l56 605h507v-88h-434q-9 -97 -18 -190t-19 -193q48 51 100 74.5t118 23.5q71 0 129.5 -26.5t100 -75t64.5 -117t23 -152.5q0 -90 -27 -164.5t-75.5 -128t-116.5 -83t-150 -29.5q-109 0 -193.5 57t-133.5 160l71 49q51 -97 112 -139.5t146 -42.5q62 0 112.5 23.5
t87.5 66t57 101.5t20 130q0 63 -16 115t-45.5 89.5t-70.5 58t-91 20.5q-72 0 -131.5 -40t-110.5 -124z" />
    <glyph glyph-name="six" unicode="6" horiz-adv-x="899" 
d="M176 541q47 87 127.5 137.5t177.5 50.5q74 0 134.5 -25.5t104 -71.5t67.5 -111t24 -144q0 -82 -28 -153.5t-76.5 -124t-114 -83t-141.5 -30.5q-82 0 -149 36t-114.5 101.5t-73.5 157t-26 202.5q0 142 42.5 264t117.5 211t178 140t223 51q12 0 25.5 -1t24.5 -3l26 -4v-80
q-14 2 -29 4q-13 2 -28 3t-29 1q-92 0 -170.5 -38t-138.5 -107.5t-99.5 -167t-54.5 -215.5zM193 358q0 -29 10 -66.5t30 -74.5q76 -145 216 -145q58 0 108 24t87 65t58 97.5t21 120.5q0 59 -17 107.5t-48.5 84t-74.5 55t-96 19.5q-100 0 -177.5 -71t-119.5 -207z" />
    <glyph glyph-name="seven" unicode="7" horiz-adv-x="694" 
d="M664 1053l-443 -1053h-96l436 1047h-530v88h633v-82z" />
    <glyph glyph-name="eight" unicode="8" horiz-adv-x="897" 
d="M88 307q0 107 62.5 187t175.5 122q-93 42 -133.5 105t-40.5 149q0 62 22.5 113.5t63 88.5t97.5 57t126 20q62 0 115 -19.5t91.5 -54.5t60.5 -83t22 -105q0 -42 -12.5 -81.5t-35.5 -74.5t-55.5 -64.5t-73.5 -50.5q122 -52 179 -131t57 -182q0 -67 -28.5 -124.5t-78 -100.5
t-117 -67.5t-145.5 -24.5q-75 0 -139.5 24.5t-111.5 67.5t-74 102t-27 127zM434 571q-52 -18 -99 -40.5t-82 -53.5t-56 -72t-21 -96q0 -49 21 -93t56.5 -77t83 -52t101.5 -19q59 0 110.5 18t89.5 48.5t59.5 72t21.5 88.5q0 90 -61.5 155t-194.5 111zM238 877
q6 -66 31.5 -104t60 -60t72 -33.5t67.5 -24.5q99 44 147 98.5t48 129.5q0 41 -16 75t-43.5 59.5t-66 39.5t-83.5 14q-46 0 -85.5 -15t-69 -41t-46 -61.5t-16.5 -76.5z" />
    <glyph glyph-name="nine" unicode="9" horiz-adv-x="899" 
d="M723 596q-30 -53 -75 -95q-19 -18 -43 -35t-53 -30.5t-63 -21.5t-73 -8q-73 0 -133.5 25.5t-103.5 71.5t-67 111t-24 144q0 82 27.5 153.5t76 124t114.5 83t143 30.5q81 0 147.5 -36.5t114 -102t74 -157t26.5 -202.5q0 -83 -16.5 -165t-49.5 -156t-81 -137t-110.5 -109
t-139.5 -72t-168 -26q-11 0 -24 1t-24 3l-26 4v78q17 -1 33 -3q14 -2 27 -2.5t20 -0.5q96 0 177 37t142 106t100.5 167t51.5 220zM707 778q0 28 -11.5 65t-29.5 75q-38 72 -93 109.5t-124 37.5q-58 0 -108 -23.5t-87 -65t-57.5 -98t-20.5 -122.5q0 -60 17 -109t47.5 -84.5
t74 -54.5t95.5 -19q102 0 178.5 72.5t118.5 206.5v10z" />
    <glyph glyph-name="zero" unicode="0" horiz-adv-x="909" 
d="M455 -14q-85 0 -153.5 41t-115.5 118t-72.5 186.5t-25.5 246.5q0 131 26 236.5t73.5 179.5t115.5 114.5t152 40.5t151.5 -40.5t115 -114.5t73.5 -179.5t26 -236.5q0 -137 -25.5 -246.5t-72.5 -186.5t-115 -118t-153 -41zM455 1069q-64 0 -115.5 -35t-87.5 -99.5t-55 -155
t-19 -201.5q0 -121 19.5 -215.5t56 -159.5t87.5 -99t114 -34t114 34t87 99t55.5 159.5t19.5 215.5q0 111 -19 201.5t-54.5 155t-86.5 99.5t-116 35z" />
    <glyph glyph-name="sterling" unicode="&#xa3;" horiz-adv-x="950" 
d="M33 649h127q-1 27 -3 51q-2 20 -2.5 40.5t-0.5 29.5q-1 88 22.5 158t67.5 119t105 75.5t134 26.5q96 0 166 -51t129 -160l-78 -41q-38 82 -95 128t-122 46q-55 0 -101 -24t-79 -66t-49.5 -98t-13.5 -121q1 -11 2 -30.5t3 -37.5q2 -21 3 -45h446v-80h-438q3 -24 5 -43.5
t3 -36t1.5 -32t0.5 -33.5q0 -48 -3.5 -90.5t-11.5 -82.5t-21 -80t-31 -83h338q77 0 131 8t88 26.5t49.5 48t15.5 71.5q0 20 -5 38t-11 33q-7 18 -17 33l80 27q10 -21 19 -43q8 -19 13.5 -42t6.5 -46q3 -78 -26.5 -126t-80.5 -73.5t-119 -34t-142 -8.5h-494q38 66 63.5 120.5
t40.5 105.5t21 101.5t6 108.5v25t-1 27t-2.5 34.5t-4.5 46.5h-135v80z" />
    <glyph glyph-name="dollar" unicode="$" horiz-adv-x="844" 
d="M352 590q-10 5 -33 15t-52 26t-59.5 39t-55.5 53.5t-41.5 68.5t-16.5 85q0 54 19 99.5t53 80.5t81.5 58t104.5 32v158h80v-156q112 -9 174.5 -71.5t85.5 -178.5l-82 -16q-33 165 -178 186v-414q43 -19 81 -37q32 -15 64.5 -31.5t49.5 -27.5q72 -45 102.5 -106t30.5 -142
q0 -65 -24.5 -122t-68.5 -100.5t-104 -70.5t-131 -32v-244h-80v244q-146 11 -226.5 103.5t-80.5 256.5v27h86v-21q0 -130 54.5 -200t160.5 -78h6v516zM438 74q46 0 88 19t74 51.5t51 75.5t19 91q0 53 -19 98t-67 76q-14 9 -39.5 22t-50.5 26q-29 15 -62 30v-489h6zM182 879
q0 -48 23 -82.5t53 -58t57.5 -36.5t36.5 -18v385q-34 -3 -64.5 -20t-54 -43t-37.5 -59t-14 -68z" />
    <glyph glyph-name="cent" unicode="&#xa2;" horiz-adv-x="559" 
d="M258 1266h76v-117q52 -3 93 -20t79 -52l-53 -61q-31 28 -57.5 40t-61.5 15v-364q76 12 145 88l53 -50q-42 -57 -91.5 -84t-106.5 -32v-156h-76v160q-48 9 -85.5 31.5t-63 55.5t-39 75.5t-13.5 91.5q0 97 53.5 165.5t147.5 90.5v123zM143 887q0 -62 30.5 -105.5
t84.5 -64.5v344q-59 -23 -87 -67.5t-28 -106.5z" />
    <glyph glyph-name="florin" unicode="&#xc4;" horiz-adv-x="670" 
d="M141 229h-121l19 76h121l168 619q31 115 87 170t154 55q21 0 41 -5t36 -11q18 -7 34 -17l-27 -76q-12 8 -25 14q-11 5 -26.5 9t-34.5 4q-55 0 -94 -37t-59 -115l-164 -610h121l-17 -76h-125l-219 -856h-90z" />
    <glyph glyph-name="yen" unicode="&#xb4;" horiz-adv-x="891" 
d="M412 483v27l-37 53h-273v76h224l-330 496h104l355 -529l336 529h104l-320 -496h228v-76h-277l-18 -28v-52h295v-75h-295v-408h-96v408h-310v75h310z" />
    <glyph glyph-name="period" unicode="." horiz-adv-x="260" 
d="M55 61q0 31 21.5 52.5t52.5 21.5q32 0 53 -21.5t21 -52.5t-21 -53t-53 -22q-31 0 -52.5 22t-21.5 53z" />
    <glyph glyph-name="colon" unicode=":" horiz-adv-x="260" 
d="M55 434q0 32 21 53t53 21t53 -21t21 -53q0 -31 -21 -53.5t-53 -22.5q-31 0 -52.5 22.5t-21.5 53.5zM55 61q0 31 21.5 52.5t52.5 21.5q32 0 53 -21.5t21 -52.5t-21 -53t-53 -22q-31 0 -52.5 22t-21.5 53z" />
    <glyph glyph-name="periodcentered" unicode="&#xe1;" horiz-adv-x="532" 
d="M193 287q0 32 20.5 53.5t52.5 21.5t53 -20.5t21 -52.5t-21 -53t-53 -21q-31 0 -52 20.5t-21 51.5z" />
    <glyph glyph-name="periodcentered" unicode="&#x2219;" horiz-adv-x="532" 
d="M193 287q0 32 20.5 53.5t52.5 21.5t53 -20.5t21 -52.5t-21 -53t-53 -21q-31 0 -52 20.5t-21 51.5z" />
    <glyph glyph-name="ellipsis" unicode="&#xc9;" horiz-adv-x="922" 
d="M387 61q0 31 21 52.5t53 21.5t53 -21.5t21 -52.5t-21 -53t-53 -22q-31 0 -52.5 22t-21.5 53zM59 61q0 15 6 28.5t16.5 23.5t23.5 16t28 6q32 0 54 -21.5t22 -52.5t-22 -53t-54 -22q-15 0 -28 6t-23.5 16t-16.5 24t-6 29zM713 61q0 31 21 52.5t52 21.5t53.5 -21.5
t22.5 -52.5q0 -15 -6 -29t-16.5 -24t-23.5 -16t-28 -6q-32 0 -53.5 22t-21.5 53z" />
    <glyph glyph-name="comma" unicode="," horiz-adv-x="274" 
d="M37 -227q24 60 38.5 98t22.5 61.5t10.5 36t2.5 21.5q0 8 -2 10.5t-9 7.5q-15 5 -23.5 19.5t-8.5 31.5q0 31 21.5 53.5t53.5 22.5t53 -23t21 -57q0 -21 -5.5 -42.5t-14 -41.5t-17.5 -39t-16 -36q-9 -20 -25.5 -52.5t-48.5 -95.5z" />
    <glyph glyph-name="semicolon" unicode=";" horiz-adv-x="274" 
d="M70 434q0 34 20.5 54t52.5 20t53 -21t21 -53q0 -31 -21 -53.5t-53 -22.5t-52.5 22t-20.5 54zM37 -227q24 60 38.5 98t22.5 61.5t10.5 36t2.5 21.5q0 8 -2 10.5t-9 7.5q-15 5 -23.5 19.5t-8.5 31.5q0 31 21.5 53.5t53.5 22.5t53 -23t21 -57q0 -21 -5.5 -42.5t-14 -41.5
t-17.5 -39t-16 -36q-9 -20 -25.5 -52.5t-48.5 -95.5z" />
    <glyph glyph-name="semicolon" unicode="&#x37e;" horiz-adv-x="274" 
d="M70 434q0 34 20.5 54t52.5 20t53 -21t21 -53q0 -31 -21 -53.5t-53 -22.5t-52.5 22t-20.5 54zM37 -227q24 60 38.5 98t22.5 61.5t10.5 36t2.5 21.5q0 8 -2 10.5t-9 7.5q-15 5 -23.5 19.5t-8.5 31.5q0 31 21.5 53.5t53.5 22.5t53 -23t21 -57q0 -21 -5.5 -42.5t-14 -41.5
t-17.5 -39t-16 -36q-9 -20 -25.5 -52.5t-48.5 -95.5z" />
    <glyph glyph-name="quoteleft" unicode="&#xd4;" horiz-adv-x="287" 
d="M236 1462q-24 -60 -38.5 -98t-22.5 -61.5t-10.5 -36t-2.5 -21.5q0 -8 2 -10.5t8 -7.5q16 -5 24.5 -19.5t8.5 -31.5q0 -31 -22 -53.5t-54 -22.5t-53 23t-21 57q0 21 6 42.5t14 41.5t17.5 39t16.5 36q9 20 25 52.5t48 95.5z" />
    <glyph glyph-name="quotedblright" unicode="&#xd3;" horiz-adv-x="590" 
d="M354 1030q24 60 38.5 98.5t22.5 62t10.5 36t2.5 20.5t-2 11t-8 8q-16 5 -24.5 19.5t-8.5 31.5q0 31 22 53.5t54 22.5t53 -23t21 -57q0 -22 -6 -43.5t-14 -41.5t-17.5 -39t-16.5 -36q-9 -20 -25 -52t-48 -95zM53 1030q24 60 38.5 98.5t22.5 62t10.5 36t2.5 20.5t-2 11
t-8 8q-16 5 -24.5 19.5t-8.5 31.5q0 31 22 53.5t54 22.5t52.5 -23t20.5 -57q0 -22 -5.5 -43.5t-14 -41.5t-17.5 -39t-16 -36q-4 -10 -10 -22.5t-15 -29.5t-20.5 -40t-28.5 -55z" />
    <glyph glyph-name="quotedblleft" unicode="&#xd2;" horiz-adv-x="590" 
d="M236 1462q-24 -60 -38.5 -98t-22.5 -61.5t-10.5 -36t-2.5 -21.5q0 -8 2 -10.5t8 -7.5q16 -5 24.5 -19.5t8.5 -31.5q0 -31 -22 -53.5t-54 -22.5t-53 23t-21 57q0 21 6 42.5t14 41.5t17.5 39t16.5 36q9 20 25 52.5t48 95.5zM537 1462q-24 -60 -38.5 -98t-22.5 -61.5
t-10.5 -36t-2.5 -21.5q0 -8 2 -10.5t8 -7.5q16 -5 24.5 -19.5t8.5 -31.5q0 -31 -22 -53.5t-54 -22.5t-53 23t-21 57q0 21 6 42.5t14 41.5t17.5 39t16.5 36q9 20 25 52.5t48 95.5z" />
    <glyph glyph-name="quotedblbase" unicode="&#xe3;" horiz-adv-x="618" 
d="M352 -227q24 60 38.5 98t22.5 61.5t10.5 36t2.5 21.5q0 8 -2 10.5t-8 7.5q-16 5 -24.5 19.5t-8.5 31.5q0 31 22 53.5t54 22.5t52.5 -23t20.5 -57q0 -21 -5.5 -42.5t-14 -41.5t-17.5 -39t-16 -36q-9 -20 -25 -52.5t-48 -95.5zM51 -227q24 60 38.5 98t22.5 61.5t10.5 36
t2.5 21.5q0 8 -2 10.5t-8 7.5q-16 5 -24.5 19.5t-8.5 31.5q0 31 22 53.5t54 22.5t52.5 -23t20.5 -57q0 -21 -5.5 -42.5t-14 -41.5t-17.5 -39t-16 -36q-9 -20 -25.5 -52.5t-48.5 -95.5z" />
    <glyph glyph-name="exclam" unicode="!" horiz-adv-x="301" 
d="M150 244l-44 630q-3 44 16.5 70.5t47.5 26.5t47.5 -26.5t15.5 -70.5l-43 -630h-40zM170 -14q-31 0 -52.5 22t-21.5 53t21.5 52.5t52.5 21.5t52.5 -21.5t21.5 -52.5t-21.5 -53t-52.5 -22z" />
    <glyph glyph-name="exclamdown" unicode="&#xc1;" horiz-adv-x="260" 
d="M203 432q0 -31 -21.5 -52.5t-52.5 -21.5q-32 0 -53 21.5t-21 52.5t21 53.5t53 22.5q31 0 52.5 -22.5t21.5 -53.5zM150 250l43 -631q3 -43 -16.5 -69.5t-47.5 -26.5t-47.5 26.5t-15.5 69.5l43 631h41z" />
    <glyph glyph-name="question" unicode="?" horiz-adv-x="537" 
d="M201 272q0 56 5 96t18.5 75.5t37.5 71.5t62 83q17 23 29 41.5t19.5 36t11 35.5t3.5 39q0 30 -10 55t-28 44t-42 29.5t-53 10.5q-42 0 -71.5 -21.5t-47.5 -47t-26 -46.5t-9 -20l-67 32q5 12 18 43t38 63t65 56.5t100 24.5q49 0 90.5 -16.5t72 -45.5t47.5 -69t17 -88
q0 -31 -6.5 -56.5t-18.5 -49.5t-29.5 -48t-39.5 -51q-34 -41 -55.5 -72t-34 -63.5t-17 -72t-4.5 -97.5h-75v28zM240 -14q-31 0 -52.5 22t-21.5 53t21.5 52.5t52.5 21.5t52 -21.5t21 -52.5t-21 -53t-52 -22z" />
    <glyph glyph-name="questiondown" unicode="&#xc0;" horiz-adv-x="496" 
d="M334 250h-76q0 -58 -4.5 -98t-17 -72.5t-34 -63.5t-55.5 -71q-22 -27 -39.5 -51t-29.5 -48t-18.5 -49.5t-6.5 -56.5q0 -48 17 -88t47.5 -69t72.5 -45.5t91 -16.5q60 0 99.5 24.5t65 56t38 62.5t18.5 43l-68 33q-1 1 -9 -20t-26 -46.5t-47 -47t-71 -21.5q-28 0 -52.5 10.5
t-42.5 29t-28.5 44t-10.5 55.5q0 21 3.5 38.5t11.5 35t20 36.5t29 42q38 46 61.5 82t37.5 71.5t19 76t5 95.5v29zM295 508q31 0 52.5 -22.5t21.5 -53.5t-21.5 -52.5t-52.5 -21.5t-52.5 21.5t-21.5 52.5t21.5 53.5t52.5 22.5z" />
    <glyph glyph-name="guillemotright" unicode="&#xc8;" horiz-adv-x="639" 
d="M434 25h-82l107 223l-107 225h82l107 -227zM176 25h-82l109 223l-109 225h82l107 -227z" />
    <glyph glyph-name="guillemotleft" unicode="&#xc7;" horiz-adv-x="639" 
d="M463 473h82l-107 -225l107 -223h-82l-107 225zM207 473h80l-107 -225l107 -223h-80l-109 223z" />
    <glyph glyph-name="guilsinglright" unicode="&#xdd;" horiz-adv-x="377" 
d="M174 25h-82l109 223l-109 225h82l107 -227z" />
    <glyph glyph-name="guilsinglleft" unicode="&#xdc;" horiz-adv-x="377" 
d="M205 473h80l-107 -225l107 -223h-80l-109 223z" />
    <glyph glyph-name="slash" unicode="/" horiz-adv-x="850" 
d="M705 1393h90l-650 -1420h-92z" />
    <glyph glyph-name="endash" unicode="&#xd0;" horiz-adv-x="625" 
d="M567 334v-90h-510v90h510z" />
    <glyph glyph-name="emdash" unicode="&#xd1;" horiz-adv-x="1120" 
d="M1061 334v-90h-1002v90h1002z" />
    <glyph glyph-name="parenleft" unicode="(" horiz-adv-x="520" 
d="M512 1516q-53 -108 -94.5 -213t-70.5 -210t-44.5 -213t-15.5 -223q0 -114 13 -219.5t40.5 -210t69 -210.5t98.5 -222h-100q-53 106 -94 210.5t-68.5 210t-41.5 215t-14 226.5q0 116 14.5 224.5t42 214t67.5 209.5t92 211h106z" />
    <glyph glyph-name="parenright" unicode=")" horiz-adv-x="520" 
d="M115 1516q51 -107 91 -211t67.5 -209.5t42 -214t14.5 -224.5q0 -117 -14 -226.5t-41.5 -215t-68 -210t-93.5 -210.5h-101q57 116 98.5 222t69 210.5t40.5 210t13 219.5q0 115 -15 223t-44 213t-71 210t-95 213h107z" />
    <glyph glyph-name="bracketleft" unicode="[" horiz-adv-x="567" 
d="M498 1516v-82h-211v-1557h211v-82h-305v1721h305z" />
    <glyph glyph-name="bracketright" unicode="]" horiz-adv-x="567" 
d="M375 -205h-305v82h211v1557h-211v82h305v-1721z" />
    <glyph glyph-name="ampersand" unicode="&#x26;" horiz-adv-x="1098" 
d="M567 0q-100 0 -183.5 33.5t-143 94t-92.5 145.5t-33 188q0 75 18.5 140t54 116.5t86.5 88t115 54.5q-66 29 -104.5 88.5t-38.5 141.5q0 68 24.5 123.5t69.5 95.5t107.5 62t138.5 22q52 0 101.5 -10t94 -27t83 -38.5t67.5 -45.5l-45 -76q-72 53 -142 83t-159 30
q-55 0 -100 -16t-77 -45t-49.5 -69.5t-17.5 -88.5t20.5 -86t58 -65t91 -41.5t119.5 -14.5h157v116h89v-116h120v-82h-120v-721h161v-80h-471zM788 801h-159q-48 0 -82 -1.5t-61 -5.5t-49.5 -10.5t-45.5 -15.5q-84 -37 -132 -119.5t-48 -191.5q0 -83 26 -152t73.5 -119
t113 -78t143.5 -28h221v721z" />
    <glyph glyph-name="section" unicode="&#xa4;" horiz-adv-x="858" 
d="M82 807q0 57 24.5 102.5t75.5 87.5q-51 32 -70.5 69.5t-19.5 90.5q0 51 21.5 94.5t60 75t91 49t114.5 17.5q80 0 150.5 -23.5t138.5 -73.5l-56 -73q-66 43 -117 63.5t-108 20.5q-42 0 -77 -11.5t-60.5 -31.5t-40 -46.5t-14.5 -56.5q0 -26 10 -44.5t31 -33.5t54.5 -27
t80.5 -24q45 -12 91 -23.5t89 -26.5t80 -35t65 -48.5t44 -67.5t16 -92q0 -54 -19.5 -103t-56.5 -89q43 -38 67.5 -91.5t24.5 -115.5q0 -77 -32.5 -142t-90 -112t-137 -73.5t-174.5 -26.5q-52 0 -95 6t-83 17.5t-81.5 28t-90.5 38.5l39 88q42 -22 80.5 -38t76 -26.5t76.5 -16
t82 -5.5q68 0 127.5 20t103.5 54.5t69.5 81t25.5 98.5q0 42 -14.5 76t-51 62.5t-99.5 53t-161 47.5q-127 28 -193.5 87t-66.5 149zM293 954q-48 -23 -79.5 -63t-31.5 -82q0 -50 48.5 -85t138.5 -56q58 -12 100 -24t70 -22q33 -11 55 -22q18 16 31 37q11 18 20.5 42.5
t9.5 55.5q0 45 -18.5 75.5t-49.5 50.5t-71 33t-82 24z" />
    <glyph glyph-name="dagger" unicode="&#xa0;" horiz-adv-x="846" 
d="M760 1030v-80h-289v-1018h-96v1018h-289v80h289v336h96v-336h289z" />
    <glyph glyph-name="daggerdbl" unicode="&#xe0;" horiz-adv-x="846" 
d="M375 950h-289v80h289v336h96v-336h289v-80h-289v-233h289v-76h-289v-709h-96v709h-289v76h289v233z" />
    <glyph glyph-name="asterisk" unicode="*" horiz-adv-x="549" 
d="M317 1366v-164q34 19 71 39.5t71 40.5l35 -63l-144 -84q37 -22 72.5 -43t71.5 -39l-33 -68l-144 84v-172h-75v176q-37 -22 -75.5 -44t-76.5 -44l-35 64l150 86q-35 20 -75 42.5t-75 41.5l35 65l152 -86v168h75z" />
    <glyph glyph-name="quotesingle" unicode="'" horiz-adv-x="252" 
d="M109 1022l-43 297q-5 31 11 52.5t48 21.5t48 -21.5t11 -52.5l-43 -297h-32z" />
    <glyph glyph-name="quotedbl" unicode="&#x22;" horiz-adv-x="467" 
d="M109 1022l-43 297q-5 31 11 52.5t48 21.5t48 -21.5t11 -52.5l-43 -297h-32zM324 1022l-43 297q-5 31 11 52.5t48 21.5t48 -21.5t11 -52.5l-43 -297h-32z" />
    <glyph glyph-name="at" unicode="@" horiz-adv-x="1278" 
d="M1012 332q-48 -37 -104 -66q-48 -25 -112 -46t-137 -21q-101 0 -186 35.5t-146.5 99t-95.5 152.5t-34 196q0 105 35.5 194t98.5 153.5t150 101t189 36.5q90 0 165.5 -32t130 -89t85 -134t30.5 -167q0 -67 -14 -123.5t-38.5 -97.5t-59 -63.5t-76.5 -22.5q-38 0 -63 10
t-41 22q-18 14 -29 32q-28 -22 -66.5 -34.5t-77.5 -12.5q-44 0 -81 15.5t-64 43t-42 66.5t-15 86q0 60 22 109t62 84t96.5 54t124.5 19q21 0 40.5 -2.5t35.5 -5.5q18 -4 34 -9v-290q0 -20 1 -38.5t7 -33t18 -23t34 -8.5q23 0 42 15.5t33 43.5t21.5 66.5t7.5 83.5
q0 78 -23.5 142.5t-65.5 111t-100.5 72.5t-129.5 26q-83 0 -154 -30t-122.5 -83.5t-81 -127t-29.5 -160.5q0 -86 27.5 -159t77 -126.5t117 -83.5t148.5 -30q69 0 125 17t97 37q48 24 84 54zM748 850q-8 0 -15 1q-6 1 -12 1h-10q-47 0 -86 -13t-66.5 -36.5t-43 -56.5
t-15.5 -74q0 -30 9 -55.5t25 -44.5t38.5 -29.5t48.5 -10.5q34 0 65 14t62 40v264z" />
    <glyph glyph-name="numbersign" unicode="#" horiz-adv-x="1092" 
d="M297 592h-225l16 80h223l54 307h-224l15 82h223l57 317h88l-55 -317h238l55 317h90l-57 -317h225l-16 -82h-224l-53 -307h223l-16 -80h-219l-60 -320h-88l56 320h-236l-57 -320h-90zM637 672l55 307h-235l-58 -307h238z" />
    <glyph glyph-name="degree" unicode="&#xa1;" horiz-adv-x="631" 
d="M315 750q33 0 62 13t50 35.5t33.5 52.5t12.5 64q0 32 -12.5 61.5t-34 52t-50.5 35.5t-61 13t-60.5 -13t-50 -35.5t-34 -52t-12.5 -61.5q0 -34 12 -64t33.5 -52.5t50 -35.5t61.5 -13zM315 1145q48 0 90.5 -17.5t74 -48t49.5 -72.5t18 -92q0 -51 -18 -94t-49 -74.5
t-73.5 -49t-91.5 -17.5t-91.5 17.5t-73.5 49t-48.5 74.5t-17.5 94q0 50 18 92t49 72.5t73.5 48t90.5 17.5z" />
    <glyph glyph-name="plus" unicode="+" horiz-adv-x="899" 
d="M412 700h75v-313h314v-74h-314v-313h-75v313h-314v74h314v313z" />
    <glyph glyph-name="divide" unicode="&#xd6;" 
d="M297 821l37 -35l-96 -96q23 -23 48.5 -48t47.5 -48l-37 -35l-96 96q-23 -21 -49 -46.5t-48 -47.5l-34 33l96 96q-23 22 -49 49t-47 47l36 35l99 -96z" />
    <glyph glyph-name="equal" unicode="=" horiz-adv-x="899" 
d="M801 416h-703v76h703v-76zM801 217h-703v76h703v-76z" />
    <glyph glyph-name="trademark" unicode="&#xaa;" horiz-adv-x="987" 
d="M549 1366h51l107 -350l106 350h47l113 -625h-64l-82 463l-94 -319h-53l-96 327l-84 -471h-60zM190 741v570h-131v55h328v-55h-133v-570h-64z" />
    <glyph glyph-name="paragraph" unicode="&#xa6;" horiz-adv-x="905" 
d="M412 594q-81 2 -145.5 31.5t-109.5 82t-69.5 125t-24.5 160.5q0 81 22.5 151t70.5 122t122 82t177 30h387v-73h-109v-1686h-76v1686h-165v-1686h-80v975zM412 1305q-40 0 -87.5 -16.5t-88.5 -53.5t-68.5 -96.5t-26.5 -145.5q0 -68 16.5 -125.5t50.5 -100.5t84.5 -68.5
t119.5 -30.5v637z" />
    <glyph glyph-name="currency" horiz-adv-x="858" 
d="M797 242q-47 -124 -128 -190t-188 -66q-152 0 -245 118t-115 353h-115l21 75h88v80h-109l21 76h94q22 230 116 345.5t246 115.5q109 0 184.5 -60.5t125.5 -185.5l-80 -33q-23 54 -47 92t-51.5 61.5t-60 34.5t-73.5 11q-114 0 -184.5 -95.5t-85.5 -285.5h283l-23 -76h-266
v-80h241l-22 -75h-213q20 -196 89 -291.5t181 -95.5q156 0 232 204z" />
    <glyph glyph-name="quotesinglbase" unicode="&#xe2;" horiz-adv-x="287" 
d="M51 -227q24 60 38.5 98t22.5 61.5t10.5 36t2.5 21.5q0 8 -2 10.5t-8 7.5q-16 5 -24.5 19.5t-8.5 31.5q0 31 22 53.5t54 22.5t52.5 -23t20.5 -57q0 -21 -5.5 -42.5t-14 -41.5t-17.5 -39t-16 -36q-9 -20 -25.5 -52.5t-48.5 -95.5z" />
    <glyph glyph-name="quoteright" unicode="&#xd5;" horiz-adv-x="287" 
d="M53 1030q24 60 38.5 98.5t22.5 62t10.5 36t2.5 20.5t-2 11t-8 8q-16 5 -24.5 19.5t-8.5 31.5q0 31 22 53.5t54 22.5t52.5 -23t20.5 -57q0 -22 -5.5 -43.5t-14 -41.5t-17.5 -39t-16 -36q-4 -10 -10 -22.5t-15 -29.5t-20.5 -40t-28.5 -55z" />
    <glyph glyph-name="braceleft" unicode="{" horiz-adv-x="565" 
d="M459 1415q-9 7 -21 12q-11 5 -25 8t-32 3q-53 0 -77.5 -28t-24.5 -85v-549q0 -37 -15 -68t-41 -53q56 -45 56 -118v-549q0 -59 24.5 -86t77.5 -27q16 0 30 3.5t24.5 7.5t16.5 7.5t7 4.5l41 -68q-20 -12 -41 -21q-18 -8 -40.5 -14t-45.5 -6q-41 0 -75.5 13.5t-60 37.5
t-39.5 56.5t-14 70.5v531q0 35 -5.5 59.5t-17.5 42.5t-30 30.5t-43 22.5q32 18 50.5 34t29 34t13.5 40.5t3 53.5v528q0 40 14 73t39.5 56.5t60 36.5t75.5 13q26 0 49 -5.5t40 -13.5q20 -9 38 -20z" />
    <glyph glyph-name="braceright" unicode="}" horiz-adv-x="565" 
d="M66 1483q18 11 38 20q17 8 40 13.5t49 5.5q41 0 75 -13t59.5 -36.5t39.5 -56.5t14 -73v-528q0 -31 3 -53.5t13.5 -40.5t29.5 -34t50 -34q-24 -10 -42 -22.5t-30 -30.5t-18 -42.5t-6 -59.5v-531q0 -38 -14 -70.5t-39.5 -56.5t-59.5 -37.5t-75 -13.5q-23 0 -46 6t-41 14
q-21 9 -40 21l40 68q1 -1 7.5 -4.5t16.5 -7.5t24 -7.5t30 -3.5q53 0 78 27t25 86v549q0 73 55 118q-26 22 -40.5 53t-14.5 68v549q0 113 -103 113q-17 0 -31.5 -3t-25.5 -8q-12 -5 -21 -12z" />
    <glyph glyph-name="ordfeminine" unicode="&#xbb;" horiz-adv-x="459" 
d="M408 1001h-78v27q-14 -11 -41 -24t-64 -13t-67.5 13t-53 37t-35 56.5t-12.5 71.5q0 52 18 93.5t51.5 70.5t80.5 44.5t104 15.5q12 0 27.5 -1.5t30 -4t25.5 -4.5t14 -3v-379zM330 1321h-23q-37 0 -68.5 -10.5t-54 -30t-35 -47.5t-12.5 -62q0 -23 7 -42.5t19.5 -34
t29.5 -23t36 -8.5q25 0 47.5 9t53.5 34v215z" />
    <glyph glyph-name="ordmasculine" unicode="&#xbc;" horiz-adv-x="512" 
d="M252 1393q41 0 77 -15.5t62.5 -43t42 -64.5t15.5 -80q0 -42 -15.5 -78.5t-42 -62.5t-62.5 -41t-77 -15q-42 0 -79 15t-64 41t-42.5 62.5t-15.5 78.5q0 43 15.5 80t42.5 64.5t64 43t79 15.5zM252 1063q24 0 46 10.5t38.5 27.5t26.5 40.5t10 48.5q0 28 -10 52t-26.5 41.5
t-38.5 27.5t-46 10q-25 0 -47.5 -10t-39.5 -27.5t-26.5 -41.5t-9.5 -52q0 -25 9.5 -48.5t26.5 -40.5t39.5 -27.5t47.5 -10.5z" />
    <glyph glyph-name="plusminus" unicode="&#xb1;" horiz-adv-x="897" 
d="M412 891h75v-313h312v-76h-312v-312h-75v312h-314v76h314v313zM799 0h-701v74h701v-74z" />
    <glyph glyph-name="fraction" unicode="&#xda;" horiz-adv-x="612" 
d="M535 1163h94l-551 -1190h-94z" />
    <glyph glyph-name="fraction" unicode="&#x2215;" horiz-adv-x="612" 
d="M535 1163h94l-551 -1190h-94z" />
    <glyph glyph-name="fraction" unicode="&#x2044;" horiz-adv-x="612" 
d="M535 1163h94l-551 -1190h-94z" />
    <glyph glyph-name="percent" unicode="%" horiz-adv-x="1206" 
d="M831 1163h95l-551 -1190h-94zM303 506q-48 0 -86 22.5t-64.5 65t-40.5 103.5t-14 137q0 71 14.5 129.5t41 99.5t64.5 63.5t85 22.5q45 0 83 -21.5t65 -62.5t42 -99t15 -132q0 -76 -14 -137t-40.5 -103.5t-64.5 -65t-86 -22.5zM303 575q54 0 84.5 66t30.5 193
q0 34 -4.5 76.5t-17 80t-35 63t-58.5 25.5q-56 0 -85.5 -65.5t-29.5 -179.5q0 -125 30.5 -192t84.5 -67zM903 -14q-48 0 -86 22.5t-64.5 65t-40.5 103t-14 136.5q0 72 14.5 130t41 99.5t64.5 64t85 22.5q45 0 83 -21.5t65 -62.5t42 -99.5t15 -132.5q0 -76 -14 -136.5
t-40.5 -103t-64.5 -65t-86 -22.5zM903 55q54 0 84.5 65.5t30.5 192.5q0 34 -4.5 76.5t-17 80t-35 63.5t-58.5 26q-56 0 -85.5 -65.5t-29.5 -180.5q0 -125 30.5 -191.5t84.5 -66.5z" />
    <glyph glyph-name="perthousand" unicode="&#xe4;" horiz-adv-x="1700" 
d="M831 1163h95l-551 -1190h-94zM303 506q-48 0 -86 22.5t-64.5 65t-40.5 103.5t-14 137q0 71 14.5 129.5t41 99.5t64.5 63.5t85 22.5q45 0 83 -21.5t65 -62.5t42 -99t15 -132q0 -76 -14 -137t-40.5 -103.5t-64.5 -65t-86 -22.5zM303 575q54 0 84.5 66t30.5 193
q0 34 -4.5 76.5t-17 80t-35 63t-58.5 25.5q-56 0 -85.5 -65.5t-29.5 -179.5q0 -125 30.5 -192t84.5 -67zM903 -14q-48 0 -86 22.5t-64.5 65t-40.5 103t-14 136.5q0 72 14.5 130t41 99.5t64.5 64t85 22.5q45 0 83 -21.5t65 -62.5t42 -99.5t15 -132.5q0 -76 -14 -136.5
t-40.5 -103t-64.5 -65t-86 -22.5zM903 55q54 0 84.5 65.5t30.5 192.5q0 34 -4.5 76.5t-17 80t-35 63.5t-58.5 26q-56 0 -85.5 -65.5t-29.5 -180.5q0 -125 30.5 -191.5t84.5 -66.5zM1397 -6q-48 0 -86 22.5t-64.5 65t-40.5 103.5t-14 137q0 71 14.5 129.5t41 99.5t64.5 63.5
t85 22.5q45 0 83 -21.5t65 -62.5t42 -99t15 -132q0 -76 -14 -137t-40.5 -103.5t-64.5 -65t-86 -22.5zM1397 63q54 0 84 66t30 193q0 34 -4.5 76.5t-16.5 80t-34.5 63t-58.5 25.5q-56 0 -85.5 -65.5t-29.5 -179.5q0 -125 30.5 -192t84.5 -67z" />
    <glyph glyph-name="backslash" unicode="\" horiz-adv-x="850" 
d="M705 -27l-652 1420h92l650 -1420h-90z" />
    <glyph glyph-name="dieresis" unicode="&#xac;" horiz-adv-x="487" 
d="M115 651q-26 0 -43 17.5t-17 42.5q0 26 17.5 43.5t42.5 17.5q24 0 41.5 -17.5t17.5 -43.5q0 -25 -16.5 -42.5t-42.5 -17.5zM373 651q-26 0 -43 17.5t-17 42.5q0 26 17.5 43.5t42.5 17.5t42 -17.5t17 -43.5q0 -25 -16.5 -42.5t-42.5 -17.5z" />
    <glyph glyph-name="dotaccent" unicode="&#xfa;" horiz-adv-x="242" 
d="M121 651q-26 0 -43 17.5t-17 42.5q0 26 17.5 43.5t42.5 17.5t42 -17.5t17 -43.5q0 -25 -16.5 -42.5t-42.5 -17.5z" />
    <glyph glyph-name="dotaccent" unicode="&#x2d9;" horiz-adv-x="242" 
d="M121 651q-26 0 -43 17.5t-17 42.5q0 26 17.5 43.5t42.5 17.5t42 -17.5t17 -43.5q0 -25 -16.5 -42.5t-42.5 -17.5z" />
    <glyph glyph-name="ring" unicode="&#xfb;" horiz-adv-x="369" 
d="M184 600q-26 0 -48.5 9.5t-39 26.5t-26 39.5t-9.5 47.5q0 26 10 48t26.5 38t39 25.5t47.5 9.5q26 0 48 -9.5t39 -25.5t26.5 -38t9.5 -48q0 -25 -9.5 -47.5t-26 -39.5t-39 -26.5t-48.5 -9.5zM184 774q-21 0 -36 -15.5t-15 -35.5q0 -22 15 -37.5t36 -15.5q22 0 37 15.5
t15 37.5q0 20 -15 35.5t-37 15.5z" />
    <glyph glyph-name="ring" unicode="&#x2da;" horiz-adv-x="369" 
d="M184 600q-26 0 -48.5 9.5t-39 26.5t-26 39.5t-9.5 47.5q0 26 10 48t26.5 38t39 25.5t47.5 9.5q26 0 48 -9.5t39 -25.5t26.5 -38t9.5 -48q0 -25 -9.5 -47.5t-26 -39.5t-39 -26.5t-48.5 -9.5zM184 774q-21 0 -36 -15.5t-15 -35.5q0 -22 15 -37.5t36 -15.5q22 0 37 15.5
t15 37.5q0 20 -15 35.5t-37 15.5z" />
    <glyph glyph-name="acute" unicode="&#xab;" horiz-adv-x="352" 
d="M45 596q14 18 29.5 40t31 44.5t31 44.5t29.5 41q25 35 44 51.5t38 16.5q21 0 35 -13.5t14 -32.5q0 -12 -6 -26.5t-25 -30.5l-149 -135h-72z" />
    <glyph glyph-name="grave" unicode="`" horiz-adv-x="352" 
d="M236 596l-150 135q-19 16 -25 30.5t-6 26.5q0 19 14 32.5t35 13.5q19 0 38.5 -16.5t43.5 -51.5q14 -19 29.5 -41t31 -44.5t31 -44.5t29.5 -40h-71z" />
    <glyph glyph-name="circumflex" unicode="&#xf6;" horiz-adv-x="553" 
d="M233 791q24 22 50 22q23 0 47 -22l162 -170h-103l-110 98l-119 -98h-99z" />
    <glyph glyph-name="caron" unicode="&#xff;" horiz-adv-x="553" 
d="M319 633q-21 -23 -49 -23q-11 0 -23.5 7t-23.5 18l-162 168h103l112 -98l119 98h97z" />
    <glyph glyph-name="caron" unicode="&#x2c7;" horiz-adv-x="553" 
d="M319 633q-21 -23 -49 -23q-11 0 -23.5 7t-23.5 18l-162 168h103l112 -98l119 98h97z" />
    <glyph glyph-name="breve" unicode="&#xf9;" horiz-adv-x="434" 
d="M217 625q-69 0 -110 44t-46 132h84q4 -48 20.5 -70t51.5 -22t52 22t20 70h84q-5 -88 -46 -132t-110 -44z" />
    <glyph glyph-name="breve" unicode="&#x2d8;" horiz-adv-x="434" 
d="M217 625q-69 0 -110 44t-46 132h84q4 -48 20.5 -70t51.5 -22t52 22t20 70h84q-5 -88 -46 -132t-110 -44z" />
    <glyph glyph-name="tilde" unicode="&#xf7;" horiz-adv-x="504" 
d="M61 698q29 34 60.5 52t62.5 18q17 0 33 -4.5t32.5 -10t32.5 -10t33 -4.5q19 0 32 10.5t32 34.5l63 -49q-27 -42 -56.5 -60t-68.5 -18q-18 0 -33 4t-29 8.5t-29 8.5t-33 4q-17 0 -34 -8.5t-40 -28.5z" />
    <glyph glyph-name="hungarumlaut" unicode="&#xfd;" horiz-adv-x="647" 
d="M182 766q25 35 43 51.5t39 16.5q22 0 35.5 -13.5t13.5 -32.5q0 -17 -8 -30t-22 -27l-150 -135h-72zM455 766q24 35 42 51.5t40 16.5q21 0 35 -13.5t14 -32.5q0 -17 -8.5 -30t-22.5 -27l-149 -135h-72z" />
    <glyph glyph-name="hungarumlaut" unicode="&#x2dd;" horiz-adv-x="647" 
d="M182 766q25 35 43 51.5t39 16.5q22 0 35.5 -13.5t13.5 -32.5q0 -17 -8 -30t-22 -27l-150 -135h-72zM455 766q24 35 42 51.5t40 16.5q21 0 35 -13.5t14 -32.5q0 -17 -8.5 -30t-22.5 -27l-149 -135h-72z" />
    <glyph glyph-name="cedilla" unicode="&#xfc;" 
d="M223 20h88l-71 -98q48 -8 75 -35t27 -67q0 -54 -41 -87.5t-113 -33.5q-35 0 -68 13t-59 30l43 59q22 -12 40.5 -20t41.5 -8q31 0 51.5 13t20.5 32q0 17 -20 30t-54 13q-8 0 -20.5 -0.5t-24.5 -2.5q-14 -2 -30 -3z" />
    <glyph glyph-name="ogonek" unicode="&#xfe;" horiz-adv-x="436" 
d="M252 33q-27 -25 -46.5 -44.5t-31.5 -35t-18 -28t-6 -25.5q0 -23 17 -35t42 -12q23 0 58 21t67 52l41 -49q-51 -49 -98.5 -74.5t-88.5 -25.5q-26 0 -49 9t-40 24.5t-27 38t-9 49.5q1 18 6 34t16 32t29 32.5t44 36.5h94z" />
    <glyph glyph-name="ogonek" unicode="&#x2db;" horiz-adv-x="436" 
d="M252 33q-27 -25 -46.5 -44.5t-31.5 -35t-18 -28t-6 -25.5q0 -23 17 -35t42 -12q23 0 58 21t67 52l41 -49q-51 -49 -98.5 -74.5t-88.5 -25.5q-26 0 -49 9t-40 24.5t-27 38t-9 49.5q1 18 6 34t16 32t29 32.5t44 36.5h94z" />
    <glyph glyph-name="macron" unicode="&#xf8;" horiz-adv-x="498" 
d="M436 758v-90h-375v90h375z" />
    <glyph glyph-name="macron" unicode="&#x2c9;" horiz-adv-x="498" 
d="M436 758v-90h-375v90h375z" />
    <glyph glyph-name="copyright" unicode="&#xa9;" horiz-adv-x="1618" 
d="M1108 397q-8 -10 -31 -34t-61 -49t-91.5 -44.5t-121.5 -19.5q-84 0 -153 30t-118.5 85t-76.5 132t-27 171q0 98 29 179t81 139.5t124 91t157 32.5t156 -35.5t133 -109.5l-49 -52q-48 59 -108.5 93t-131.5 34q-67 0 -124.5 -27.5t-98.5 -76.5t-64.5 -117t-23.5 -149
q0 -78 21.5 -142t60.5 -109.5t93.5 -70t121.5 -24.5q43 0 78 8t66.5 24t61 40.5t60.5 56.5zM98 672q0 101 25 193.5t70 172.5t109 145.5t142.5 112t169 72t189.5 25.5q100 0 192 -25t172 -71t145 -110.5t111 -143t71.5 -169.5t25.5 -190t-25 -190t-71.5 -170t-111 -143.5
t-144 -111t-171 -71.5t-190.5 -25q-98 0 -188.5 25t-169 70.5t-143.5 109.5t-111 141.5t-71.5 167t-25.5 185.5zM174 694q0 -90 22 -173t62.5 -155t98 -130.5t127 -100t150.5 -64t169 -22.5q134 0 251 49.5t203.5 135.5t136.5 201.5t50 248.5q0 132 -49.5 247.5t-136 202
t-202.5 136t-249 49.5q-86 0 -167 -22.5t-151 -63.5t-128 -98.5t-99.5 -126.5t-64.5 -148.5t-23 -165.5z" />
    <glyph glyph-name="registered" unicode="&#xa8;" horiz-adv-x="1393" 
d="M133 831q0 119 42.5 221.5t117 178t174.5 119t215 43.5q78 0 149.5 -19.5t133.5 -55t112.5 -86t86.5 -112t55.5 -132.5t19.5 -148q0 -115 -43 -216t-117.5 -176t-175.5 -118t-217 -43q-114 0 -215 42.5t-176 116.5t-118.5 173t-43.5 212zM209 848q0 -101 37 -190
t100.5 -155t150 -104.5t185.5 -38.5q101 0 189 37.5t153 102.5t103 153t38 189q0 99 -37.5 186t-103 151.5t-152.5 102t-186 37.5q-98 0 -185 -37.5t-152 -101.5t-102.5 -149.5t-37.5 -182.5zM602 518h-63v627h133q93 0 144.5 -41t51.5 -113q0 -34 -12 -61t-32.5 -47.5
t-48.5 -34.5t-60 -21q20 -36 41 -75.5t42.5 -79t42.5 -79t40 -75.5h-70l-160 303h-49v-303zM651 879q68 0 109 30.5t41 81.5q0 50 -32 73t-97 23h-70v-208h49z" />
    <glyph glyph-name="hyphen" unicode="-" horiz-adv-x="377" 
d="M322 334v-90h-267v90h267z" />
    <glyph glyph-name="D" unicode="D" horiz-adv-x="1204" 
d="M408 1366q168 0 299.5 -45t221.5 -131.5t137.5 -212.5t47.5 -289q0 -164 -50.5 -292t-145.5 -216t-230.5 -134t-306.5 -46h-227v1366h254zM379 84q147 0 264 41.5t199 119.5t126 190.5t44 254.5q0 145 -42 255.5t-120 184.5t-190 112t-252 38h-158v-1196h129z" />
    <glyph glyph-name="bullet" unicode="&#xa5;" horiz-adv-x="664" 
d="M193 680q0 30 10.5 56t29.5 44.5t44 29.5t53 11q29 0 55 -10.5t45 -29t30 -44t11 -55.5q0 -28 -11 -53.5t-30 -44.5t-44 -30t-54 -11q-28 0 -53.5 11t-44.5 30t-30 43.5t-11 52.5z" />
    <glyph glyph-name="lozenge" unicode="&#xd7;" horiz-adv-x="590" 
d="M350 788q24 60 38.5 98.5t22.5 62t10.5 36t2.5 21.5q0 8 -2 10.5t-8 7.5q-16 5 -24.5 19.5t-8.5 31.5q0 31 22 53.5t54 22.5t52.5 -23t20.5 -57q0 -21 -5.5 -42.5t-14 -42t-17.5 -39.5t-16 -36q-9 -19 -25.5 -51.5t-48.5 -95.5zM49 788q24 60 38.5 98.5t22.5 62t10.5 36
t2.5 21.5q0 8 -2 10.5t-8 7.5q-16 5 -24.5 19.5t-8.5 31.5q0 31 22 53.5t54 22.5t52.5 -23t20.5 -57q0 -21 -5.5 -42.5t-14 -42t-17.5 -39.5t-16 -36q-9 -19 -25.5 -51.5t-48.5 -95.5z" />
    <glyph glyph-name="lozenge" unicode="&#x25ca;" horiz-adv-x="590" 
d="M350 788q24 60 38.5 98.5t22.5 62t10.5 36t2.5 21.5q0 8 -2 10.5t-8 7.5q-16 5 -24.5 19.5t-8.5 31.5q0 31 22 53.5t54 22.5t52.5 -23t20.5 -57q0 -21 -5.5 -42.5t-14 -42t-17.5 -39.5t-16 -36q-9 -19 -25.5 -51.5t-48.5 -95.5zM49 788q24 60 38.5 98.5t22.5 62t10.5 36
t2.5 21.5q0 8 -2 10.5t-8 7.5q-16 5 -24.5 19.5t-8.5 31.5q0 31 22 53.5t54 22.5t52.5 -23t20.5 -57q0 -21 -5.5 -42.5t-14 -42t-17.5 -39.5t-16 -36q-9 -19 -25.5 -51.5t-48.5 -95.5z" />
    <glyph glyph-name="apple" horiz-adv-x="1489" 
d="M252 1356l16 22l25 -47l55 41l-4 -41l29 31l12 -43l18 12l5 -33l32 11l-4 -21l-6 -28l-6 -9l-25 -22l62 -74q8 -9 13 -18t8.5 -19t6 -22.5t5.5 -30.5q8 -75 13.5 -123.5t11 -79t11.5 -47.5t15 -29q17 -24 48.5 -37.5t72.5 -13.5h12q43 3 69.5 6.5t40.5 10.5q17 8 31.5 38
t34.5 101q12 43 27 57l10 13l20 16l4 -10q6 0 25 22q11 11 24 21t25 16l78 37q16 8 47 8h11t10 -2l51 -16l51 -15l-12 -6q0 -2 18.5 -16.5t52.5 -40.5q7 -5 13 -13.5t12 -19.5q22 -46 22 -59v-2q-6 -59 -9 -90.5t-1 -36.5q11 -34 17 -54t4 -22l-29 12l18 -35h-14l14 -59
l-4 -100l-20 8v-12q0 -7 -2.5 -12.5t-13.5 -22.5q-31 -51 -56 -82t-33 -31l5 33l-33 -8l-6 32l-52 -36l-12 61l-39 -49l-61 -8l22 59l4 8q0 2 -2 2q-8 4 -12 4q-17 0 -40.5 -12t-51.5 -35l-41 -59l-21 -12q-3 -2 -17 -17t-40 -43q-21 -24 -43 -24h-20l-60 -29l-55 10
l-14 -49l-11 -22q-2 -5 -2 -13q0 -24 21 -37l49 -30q4 -2 4 -21v-8l-14 -23l-92 58q-2 0 -3.5 1t-3.5 1q-3 0 -6.5 -3.5t-3.5 -6.5q0 -2 2 -5l15 -28l-11 -33l-10 14l-16 7l-29 18l-31 12l-12 3t-6 1h-2l-115 -43l6 39l92 70l19 22l20 45q5 13 9 22t4 11q0 5 -9.5 9
t-35.5 14q-11 3 -24.5 11.5t-29.5 21.5l-20 16q-35 29 -58 52t-32 40l-74 133l-45 78q-19 31 -28 74t-9 96q0 33 6 51l23 62l12 67l27 45l-17 27q-6 9 -6 20q0 5 1 9.5t3 9.5l35 61l-49 10q-2 3 -2 5v4q0 16 20 26q17 11 22 14.5t5 6.5l-8 8q-16 9 -21.5 24.5t-5.5 49.5
l10 -8l-2 47l29 -25l-6 53l41 -32zM526 147q-2 -4 -2 -12q0 -12 4 -21.5t9 -9.5q6 0 11.5 10t10.5 25q9 30 12 37q2 6 3 12t1 9q0 6 -4 11t-10 5q-5 0 -7 -2.5t-5 -11.5l-23 -52v0z" />
    <glyph glyph-name="Delta" unicode="&#xc6;" 
d="M295 821l37 -35l-99 -96q23 -23 50 -48t49 -48l-37 -35l-96 96q-23 -21 -49.5 -46.5t-49.5 -47.5l-32 33l96 96q-23 22 -49.5 49t-46.5 47l34 35l101 -96z" />
    <glyph glyph-name="Delta" unicode="&#x2206;" 
d="M295 821l37 -35l-99 -96q23 -23 50 -48t49 -48l-37 -35l-96 96q-23 -21 -49.5 -46.5t-49.5 -47.5l-32 33l96 96q-23 22 -49.5 49t-46.5 47l34 35l101 -96z" />
    <glyph glyph-name="Delta" unicode="&#x394;" 
d="M295 821l37 -35l-99 -96q23 -23 50 -48t49 -48l-37 -35l-96 96q-23 -21 -49.5 -46.5t-49.5 -47.5l-32 33l96 96q-23 22 -49.5 49t-46.5 47l34 35l101 -96z" />
    <glyph glyph-name="notequal" unicode="&#xad;" horiz-adv-x="590" 
d="M233 1217q-24 -60 -38 -98.5t-22 -62t-10.5 -36t-2.5 -21.5q0 -8 2 -10.5t8 -7.5q15 -5 24 -19.5t9 -31.5q0 -31 -22 -53.5t-54 -22.5t-53 23t-21 57q0 21 6 42.5t14 42t17 39.5t16 36q5 10 11 22.5t14.5 29.5t20.5 40.5t28 54.5zM535 1217q-24 -60 -38.5 -98.5
t-22.5 -62t-10.5 -36t-2.5 -21.5q0 -8 2 -10.5t8 -7.5q16 -5 24.5 -19.5t8.5 -31.5q0 -31 -22 -53.5t-54 -22.5t-53 23t-21 57q0 21 6 42.5t14 42t17.5 39.5t16.5 36q5 10 10.5 22.5t14 29.5t20.5 40.5t28 54.5z" />
    <glyph glyph-name="notequal" unicode="&#x2260;" horiz-adv-x="590" 
d="M233 1217q-24 -60 -38 -98.5t-22 -62t-10.5 -36t-2.5 -21.5q0 -8 2 -10.5t8 -7.5q15 -5 24 -19.5t9 -31.5q0 -31 -22 -53.5t-54 -22.5t-53 23t-21 57q0 21 6 42.5t14 42t17 39.5t16 36q5 10 11 22.5t14.5 29.5t20.5 40.5t28 54.5zM535 1217q-24 -60 -38.5 -98.5
t-22.5 -62t-10.5 -36t-2.5 -21.5q0 -8 2 -10.5t8 -7.5q16 -5 24.5 -19.5t8.5 -31.5q0 -31 -22 -53.5t-54 -22.5t-53 23t-21 57q0 21 6 42.5t14 42t17.5 39.5t16.5 36q5 10 10.5 22.5t14 29.5t20.5 40.5t28 54.5z" />
    <glyph glyph-name="radical" unicode="&#xc3;" 
d="M297 821l37 -35l-96 -96q23 -23 48.5 -48t47.5 -48l-37 -35l-96 96q-23 -21 -49 -46.5t-48 -47.5l-34 33l96 96q-23 22 -49 49t-47 47l36 35l99 -96z" />
    <glyph glyph-name="radical" unicode="&#x221a;" 
d="M297 821l37 -35l-96 -96q23 -23 48.5 -48t47.5 -48l-37 -35l-96 96q-23 -21 -49 -46.5t-48 -47.5l-34 33l96 96q-23 22 -49 49t-47 47l36 35l99 -96z" />
    <glyph glyph-name="integral" unicode="&#xba;" horiz-adv-x="287" 
d="M233 1217q-24 -60 -38 -98.5t-22 -62t-10.5 -36t-2.5 -21.5q0 -8 2 -10.5t8 -7.5q15 -5 24 -19.5t9 -31.5q0 -31 -22 -53.5t-54 -22.5t-53 23t-21 57q0 21 6 42.5t14 42t17 39.5t16 36q5 10 11 22.5t14.5 29.5t20.5 40.5t28 54.5z" />
    <glyph glyph-name="integral" unicode="&#x222b;" horiz-adv-x="287" 
d="M233 1217q-24 -60 -38 -98.5t-22 -62t-10.5 -36t-2.5 -21.5q0 -8 2 -10.5t8 -7.5q15 -5 24 -19.5t9 -31.5q0 -31 -22 -53.5t-54 -22.5t-53 23t-21 57q0 21 6 42.5t14 42t17 39.5t16 36q5 10 11 22.5t14.5 29.5t20.5 40.5t28 54.5z" />
    <glyph glyph-name="approxequal" unicode="&#xc5;" 
d="M297 821l37 -35l-96 -96q23 -23 48.5 -48t47.5 -48l-37 -35l-96 96q-23 -21 -49 -46.5t-48 -47.5l-34 33l96 96q-23 22 -49 49t-47 47l36 35l99 -96z" />
    <glyph glyph-name="approxequal" unicode="&#x2248;" 
d="M297 821l37 -35l-96 -96q23 -23 48.5 -48t47.5 -48l-37 -35l-96 96q-23 -21 -49 -46.5t-48 -47.5l-34 33l96 96q-23 22 -49 49t-47 47l36 35l99 -96z" />
    <glyph glyph-name="less" unicode="&#x3c;" 
d="M297 821l37 -35l-96 -96q23 -23 48.5 -48t47.5 -48l-37 -35l-96 96q-23 -21 -49 -46.5t-48 -47.5l-34 33l96 96q-23 22 -49 49t-47 47l36 35l99 -96z" />
    <glyph glyph-name="greater" unicode="&#x3e;" 
d="M297 821l37 -35l-96 -96q23 -23 48.5 -48t47.5 -48l-37 -35l-96 96q-23 -21 -49 -46.5t-48 -47.5l-34 33l96 96q-23 22 -49 49t-47 47l36 35l99 -96z" />
    <glyph glyph-name="lessequal" unicode="&#xb2;" 
d="M297 821l37 -35l-96 -96q23 -23 48.5 -48t47.5 -48l-37 -35l-96 96q-23 -21 -49 -46.5t-48 -47.5l-34 33l96 96q-23 22 -49 49t-47 47l36 35l99 -96z" />
    <glyph glyph-name="lessequal" unicode="&#x2264;" 
d="M297 821l37 -35l-96 -96q23 -23 48.5 -48t47.5 -48l-37 -35l-96 96q-23 -21 -49 -46.5t-48 -47.5l-34 33l96 96q-23 22 -49 49t-47 47l36 35l99 -96z" />
    <glyph glyph-name="greaterequal" unicode="&#xb3;" 
d="M297 821l37 -35l-96 -96q23 -23 48.5 -48t47.5 -48l-37 -35l-96 96q-23 -21 -49 -46.5t-48 -47.5l-34 33l96 96q-23 22 -49 49t-47 47l36 35l99 -96z" />
    <glyph glyph-name="greaterequal" unicode="&#x2265;" 
d="M297 821l37 -35l-96 -96q23 -23 48.5 -48t47.5 -48l-37 -35l-96 96q-23 -21 -49 -46.5t-48 -47.5l-34 33l96 96q-23 22 -49 49t-47 47l36 35l99 -96z" />
    <glyph glyph-name="logicalnot" unicode="&#xc2;" horiz-adv-x="287" 
d="M49 788q24 60 38.5 98.5t22.5 62t10.5 36t2.5 21.5q0 8 -2 10.5t-8 7.5q-16 5 -24.5 19.5t-8.5 31.5q0 31 22 53.5t54 22.5t52.5 -23t20.5 -57q0 -21 -5.5 -42.5t-14 -42t-17.5 -39.5t-16 -36q-9 -19 -25.5 -51.5t-48.5 -95.5z" />
    <glyph glyph-name="infinity" unicode="&#xb0;" 
d="M297 821l37 -35l-96 -96q23 -23 48.5 -48t47.5 -48l-37 -35l-96 96q-23 -21 -49 -46.5t-48 -47.5l-34 33l96 96q-23 22 -49 49t-47 47l36 35l99 -96z" />
    <glyph glyph-name="infinity" unicode="&#x221e;" 
d="M297 821l37 -35l-96 -96q23 -23 48.5 -48t47.5 -48l-37 -35l-96 96q-23 -21 -49 -46.5t-48 -47.5l-34 33l96 96q-23 22 -49 49t-47 47l36 35l99 -96z" />
    <glyph glyph-name="product" unicode="&#xb8;" 
d="M297 821l37 -35l-96 -96q23 -23 48.5 -48t47.5 -48l-37 -35l-96 96q-23 -21 -49 -46.5t-48 -47.5l-34 33l96 96q-23 22 -49 49t-47 47l36 35l99 -96z" />
    <glyph glyph-name="product" unicode="&#x220f;" 
d="M297 821l37 -35l-96 -96q23 -23 48.5 -48t47.5 -48l-37 -35l-96 96q-23 -21 -49 -46.5t-48 -47.5l-34 33l96 96q-23 22 -49 49t-47 47l36 35l99 -96z" />
    <glyph glyph-name="summation" unicode="&#xb7;" 
d="M297 821l37 -35l-96 -96q23 -23 48.5 -48t47.5 -48l-37 -35l-96 96q-23 -21 -49 -46.5t-48 -47.5l-34 33l96 96q-23 22 -49 49t-47 47l36 35l99 -96z" />
    <glyph glyph-name="summation" unicode="&#x2211;" 
d="M297 821l37 -35l-96 -96q23 -23 48.5 -48t47.5 -48l-37 -35l-96 96q-23 -21 -49 -46.5t-48 -47.5l-34 33l96 96q-23 22 -49 49t-47 47l36 35l99 -96z" />
    <glyph glyph-name="partialdiff" unicode="&#xb6;" 
d="M297 821l37 -35l-96 -96q23 -23 48.5 -48t47.5 -48l-37 -35l-96 96q-23 -21 -49 -46.5t-48 -47.5l-34 33l96 96q-23 22 -49 49t-47 47l36 35l99 -96z" />
    <glyph glyph-name="partialdiff" unicode="&#x2202;" 
d="M297 821l37 -35l-96 -96q23 -23 48.5 -48t47.5 -48l-37 -35l-96 96q-23 -21 -49 -46.5t-48 -47.5l-34 33l96 96q-23 22 -49 49t-47 47l36 35l99 -96z" />
    <glyph glyph-name="asciicircum" unicode="^" 
d="M297 821l37 -35l-96 -96q23 -23 48.5 -48t47.5 -48l-37 -35l-96 96q-23 -21 -49 -46.5t-48 -47.5l-34 33l96 96q-23 22 -49 49t-47 47l36 35l99 -96z" />
    <glyph glyph-name="underscore" unicode="_" horiz-adv-x="711" 
d="M-8 -143h727v-80h-727v80z" />
    <glyph glyph-name="pi" unicode="&#xb9;" 
d="M297 821l37 -35l-96 -96q23 -23 48.5 -48t47.5 -48l-37 -35l-96 96q-23 -21 -49 -46.5t-48 -47.5l-34 33l96 96q-23 22 -49 49t-47 47l36 35l99 -96z" />
    <glyph glyph-name="pi" unicode="&#x3c0;" 
d="M297 821l37 -35l-96 -96q23 -23 48.5 -48t47.5 -48l-37 -35l-96 96q-23 -21 -49 -46.5t-48 -47.5l-34 33l96 96q-23 22 -49 49t-47 47l36 35l99 -96z" />
    <glyph glyph-name="asciitilde" unicode="~" 
d="M297 821l37 -35l-96 -96q23 -23 48.5 -48t47.5 -48l-37 -35l-96 96q-23 -21 -49 -46.5t-48 -47.5l-34 33l96 96q-23 22 -49 49t-47 47l36 35l99 -96z" />
    <glyph glyph-name="mu" unicode="&#xb5;" 
d="M299 807l20 -21l-98 -96l98 -98l-20 -19l-96 97l-99 -97l-20 19l98 98l-98 96l20 21l99 -98z" />
    <glyph glyph-name="mu" unicode="&#x3bc;" 
d="M299 807l20 -21l-98 -96l98 -98l-20 -19l-96 97l-99 -97l-20 19l98 98l-98 96l20 21l99 -98z" />
    <glyph glyph-name="bar" unicode="|" horiz-adv-x="600" 
d="M258 1434h84v-1489h-84v1489z" />
    <glyph glyph-name="Omega" unicode="&#xbd;" 
d="M297 821l37 -35l-96 -96q23 -23 48.5 -48t47.5 -48l-37 -35l-96 96q-23 -21 -49 -46.5t-48 -47.5l-34 33l96 96q-23 22 -49 49t-47 47l36 35l99 -96z" />
    <glyph glyph-name="Omega" unicode="&#x2126;" 
d="M297 821l37 -35l-96 -96q23 -23 48.5 -48t47.5 -48l-37 -35l-96 96q-23 -21 -49 -46.5t-48 -47.5l-34 33l96 96q-23 22 -49 49t-47 47l36 35l99 -96z" />
    <glyph glyph-name="Omega" unicode="&#x3a9;" 
d="M297 821l37 -35l-96 -96q23 -23 48.5 -48t47.5 -48l-37 -35l-96 96q-23 -21 -49 -46.5t-48 -47.5l-34 33l96 96q-23 22 -49 49t-47 47l36 35l99 -96z" />
    <glyph glyph-name="A" unicode="A" horiz-adv-x="762" 
d="M346 1366h70l372 -1366h-98l-155 571h-314l-155 -571h-93zM512 653l-135 490l-133 -490h268z" />
    <glyph glyph-name="minus" horiz-adv-x="899" 
d="M98 313v74h703v-74h-703z" />
    <glyph glyph-name="minus" unicode="&#x2212;" horiz-adv-x="899" 
d="M98 313v74h703v-74h-703z" />
    <glyph glyph-name="multiply" horiz-adv-x="745" 
d="M319 350l-221 223l52 52l221 -222l223 224l53 -54l-223 -223l223 -221l-53 -53l-223 223l-221 -221l-52 51z" />
    <glyph glyph-name="Eth" horiz-adv-x="1206" 
d="M410 1366q168 0 299.5 -45t221.5 -131.5t137.5 -212.5t47.5 -289q0 -164 -50.5 -292t-145.5 -216t-230.5 -134t-306.5 -46h-227v637h-160v86h160v643h254zM381 84q147 0 264 41.5t199 119.5t126 190.5t44 254.5q0 145 -42 255.5t-120 184.5t-190 112t-252 38h-158v-557
h283v-86h-283v-553h129z" />
    <glyph glyph-name="Yacute" horiz-adv-x="797" 
d="M406 702l-345 664h-102l406 -784v-582h96v621l377 745h-101zM334 1462q14 18 29.5 40t31 44.5t31 44.5t29.5 41q24 35 43.5 51.5t38.5 16.5q21 0 35 -13.5t14 -31.5q0 -13 -6 -27.5t-25 -30.5l-149 -135h-72z" />
    <glyph glyph-name="Thorn" horiz-adv-x="938" 
d="M250 1366v-213h160q107 0 192 -20t144.5 -62t91.5 -108.5t32 -159.5q0 -97 -34 -171t-95 -124t-145.5 -75t-185.5 -25h-160v-408h-96v1366h96zM424 487q83 0 148 20.5t110 60.5t68.5 97.5t23.5 131.5q0 75 -22.5 127t-65.5 85t-106.5 47.5t-145.5 14.5h-184v-584h174z
" />
    <glyph glyph-name="Scaron" horiz-adv-x="993" 
d="M784 1204q-6 6 -27 23t-56.5 35t-84 32.5t-110.5 14.5q-67 0 -121 -17t-92 -48t-59 -74t-21 -95q0 -67 23.5 -107.5t68.5 -69.5t110.5 -54.5t149.5 -63.5q68 -28 129.5 -63.5t108 -83t74.5 -108.5t28 -140q0 -88 -33 -164t-91 -131.5t-137.5 -87t-172.5 -31.5
q-102 0 -203.5 26.5t-197.5 74.5l41 86q85 -48 174.5 -72.5t177.5 -24.5q74 0 137 25t109.5 68.5t73 102.5t26.5 128q0 50 -15.5 91.5t-50 78t-88.5 70t-131 67.5q-66 29 -122 52.5t-101 46.5t-79.5 48t-57.5 57.5t-35 75.5t-12 101q0 71 27.5 130t77.5 102t119.5 66.5
t152.5 23.5q90 0 152.5 -16t103.5 -36.5t62.5 -38.5t27.5 -22zM512 1485q-21 -23 -49 -23q-11 0 -23.5 7t-23.5 18l-162 168h102l113 -99l119 99h96z" />
    <glyph glyph-name="Zcaron" horiz-adv-x="797" 
d="M762 88v-88h-742l605 1278h-559v88h704l-602 -1278h594zM449 1485q-23 -23 -50 -23q-11 0 -23.5 7t-23.5 18l-162 168h103l113 -99l118 99h97z" />
    <glyph glyph-name="Zcaron" unicode="&#x17d;" horiz-adv-x="797" 
d="M762 88v-88h-742l605 1278h-559v88h704l-602 -1278h594zM449 1485q-23 -23 -50 -23q-11 0 -23.5 7t-23.5 18l-162 168h103l113 -99l118 99h97z" />
    <glyph glyph-name="zcaron" horiz-adv-x="532" 
d="M63 422v76h381l23 -41l-297 -377h303v-80h-412l-18 53l291 369h-271zM301 633q-21 -23 -49 -23q-11 0 -23.5 7t-23.5 18l-162 168h102l113 -98l119 98h96z" />
    <glyph glyph-name="zcaron" unicode="&#x17e;" horiz-adv-x="532" 
d="M63 422v76h381l23 -41l-297 -377h303v-80h-412l-18 53l291 369h-271zM301 633q-21 -23 -49 -23q-11 0 -23.5 7t-23.5 18l-162 168h102l113 -98l119 98h96z" />
    <glyph glyph-name="Lslash" horiz-adv-x="823" 
d="M250 602v-514h571v-88h-667v547l-158 -90v96l158 90v723h96v-668l362 211v-96z" />
    <glyph glyph-name="Lslash" unicode="&#x141;" horiz-adv-x="823" 
d="M250 602v-514h571v-88h-667v547l-158 -90v96l158 90v723h96v-668l362 211v-96z" />
    <glyph glyph-name="lslash" horiz-adv-x="315" 
d="M203 645v-645h-90v594l-113 -66v97l113 65v676h90v-625l112 66v-96z" />
    <glyph glyph-name="lslash" unicode="&#x142;" horiz-adv-x="315" 
d="M203 645v-645h-90v594l-113 -66v97l113 65v676h90v-625l112 66v-96z" />
    <glyph glyph-name="yacute" horiz-adv-x="594" 
d="M31 -627h82l444 1125h-88l-147 -381l-203 381h-94l256 -484zM233 596q14 18 29.5 40t31 44.5t31 44.5t29.5 41q25 35 44.5 51.5t37.5 16.5q22 0 35.5 -13.5t13.5 -32.5q0 -12 -6 -26.5t-24 -30.5l-150 -135h-72z" />
    <glyph glyph-name="thorn" horiz-adv-x="651" 
d="M201 453q17 17 39 29q19 11 46.5 19.5t63.5 8.5q54 0 99 -19t77 -53t50 -81t18 -103q0 -57 -19 -106t-52 -85t-78 -56.5t-97 -20.5q-36 0 -63 7t-46 15q-22 10 -38 21v-656h-88v1538h88v-458zM201 131q21 -29 61.5 -45t85.5 -16q32 0 61 14.5t50.5 39.5t34 58.5
t12.5 71.5t-12.5 70.5t-34 56t-50.5 36.5t-63 13q-45 0 -82 -17.5t-63 -52.5v-229z" />
    <glyph glyph-name="brokenbar" horiz-adv-x="600" 
d="M258 616h84v-671h-84v671zM258 1434h84v-672h-84v672z" />
    <glyph glyph-name="eth" horiz-adv-x="662" 
d="M281 956q-35 47 -70 89.5t-66 76.5t-54 57.5t-34 32.5l54 54q37 -36 76 -76q33 -35 73 -79.5t78 -94.5l145 143l43 -41l-151 -149q48 -71 90 -142t73 -145t48.5 -151t17.5 -160q0 -84 -13 -154.5t-44.5 -122t-84 -80t-132.5 -28.5q-54 0 -101.5 20t-82.5 54.5t-55.5 82.5
t-20.5 103q0 54 20 102t55 83.5t82.5 56t102.5 20.5q60 0 105 -22t73 -50q-6 68 -22.5 130t-42 119.5t-58.5 111.5t-72 108l-139 -139l-41 43zM502 246q0 38 -13.5 71t-36.5 57.5t-54.5 39t-67.5 14.5t-67.5 -14.5t-55 -39.5t-36.5 -58t-13 -70t13 -70t36.5 -57.5t55 -38.5
t67.5 -14q35 0 66.5 14t55 38.5t37 57.5t13.5 70z" />
    <glyph glyph-name="Euro" unicode="&#xdb;" horiz-adv-x="881" 
d="M793 242q-47 -124 -128.5 -190t-187.5 -66q-153 0 -246 118t-114 353h-115l21 75h88v80h-109l21 76h94q21 230 115 345.5t247 115.5q109 0 184.5 -60.5t124.5 -185.5l-79 -33q-23 54 -47 92t-51.5 61.5t-60 34.5t-73.5 11q-114 0 -184.5 -95.5t-85.5 -285.5h282l-22 -76
h-266v-80h241l-22 -75h-213q20 -196 89 -291.5t181 -95.5q155 0 232 204z" />
    <glyph glyph-name="onehalf" horiz-adv-x="1106" 
d="M680 1163h94l-551 -1190h-94zM983 82v-82h-371q1 61 11.5 99.5t33.5 68.5t59 57.5t87 65.5q52 40 75 74.5t23 76.5q0 45 -22 73t-60 28q-34 0 -56.5 -18t-36.5 -42t-21 -48.5t-9 -37.5l-82 15q23 103 74.5 156t128.5 53q76 0 123 -47.5t47 -131.5q0 -40 -10 -70.5
t-28 -55.5t-43 -47.5t-54 -45.5q-37 -29 -64.5 -50.5t-45.5 -38t-27.5 -29t-12.5 -23.5h281zM150 1038l-31 49l86 62h49v-627h-82v529z" />
    <glyph glyph-name="scaron" horiz-adv-x="567" 
d="M74 137q27 -19 60 -35q28 -14 63.5 -25t76.5 -11q30 0 57 6.5t48 18t33 27t12 34.5q0 52 -74 61l-145 20q-66 10 -101.5 38t-35.5 85q0 35 14.5 63t41.5 48t64 30.5t82 10.5q41 0 77.5 -10t65 -23.5t48 -25.5t26.5 -17l-43 -70l-22.5 15t-40.5 22t-53.5 20t-61.5 9
q-24 0 -44.5 -5.5t-35.5 -15t-23.5 -22t-8.5 -27.5q0 -18 17 -29.5t62 -17.5l134 -18q69 -9 106 -44.5t37 -92.5q0 -78 -65.5 -124t-178.5 -46q-31 0 -59 4.5t-56.5 14t-58.5 24.5t-65 37zM319 633q-21 -23 -49 -23q-11 0 -23.5 7t-23.5 18l-162 168h103l112 -98l119 98h97z
" />
    <glyph glyph-name="onesuperior" horiz-adv-x="356" 
d="M98 1038l-30 49l86 62h49v-627h-82v529z" />
    <glyph glyph-name="onequarter" horiz-adv-x="1047" 
d="M690 1163h94l-551 -1190h-94zM150 1038l-31 49l86 62h49v-627h-82v529zM928 233v-79h-97v-154h-83v154h-240v61l266 412h57v-394h97zM748 233v216l-138 -216h138z" />
    <glyph glyph-name="threequarters" horiz-adv-x="1241" 
d="M891 1163h94l-551 -1190h-94zM1122 233v-79h-96v-154h-84v154h-240v61l267 412h57v-394h96zM942 233v216l-137 -216h137zM233 897q30 -1 59.5 6t52.5 20.5t37.5 33t14.5 44.5q0 32 -20.5 51t-54.5 19q-31 0 -59 -28.5t-44 -71.5l-76 35q34 71 80 108t103 37q33 0 61 -11
t48.5 -30.5t32 -46.5t11.5 -59q0 -42 -16 -75.5t-53 -56.5q43 -23 65.5 -65.5t22.5 -99.5q0 -39 -15 -73.5t-41.5 -59.5t-61.5 -39.5t-75 -14.5q-38 0 -70.5 14t-56.5 39.5t-39 60.5t-20 77l82 14q6 -56 35 -90.5t69 -34.5q23 0 42 8.5t33 23t22 34t8 41.5q0 36 -12 59
t-34.5 35.5t-55.5 16t-75 1.5v78z" />
    <glyph glyph-name="twosuperior" horiz-adv-x="520" 
d="M428 604v-82h-371q1 61 11.5 100t33.5 69t59 57.5t87 64.5q52 40 75 75t23 77q0 45 -22 72.5t-60 27.5q-34 0 -56.5 -18t-36.5 -42t-21 -48t-9 -37l-82 14q23 103 74.5 156t128.5 53q38 0 69 -12.5t53.5 -35.5t35 -56t12.5 -74q0 -40 -10 -70.5t-28 -56t-43 -48
t-54 -45.5q-37 -29 -64.5 -50.5t-45.5 -38t-27.5 -29t-12.5 -23.5h281z" />
    <glyph glyph-name="threesuperior" horiz-adv-x="481" 
d="M129 881q30 -1 59.5 6t52.5 20.5t37.5 33t14.5 44.5q0 32 -21 51t-55 19q-31 0 -59 -28.5t-43 -72.5l-76 35q34 71 79.5 108.5t102.5 37.5q33 0 61 -11t49 -30.5t32.5 -47t11.5 -59.5q0 -42 -16.5 -75t-53.5 -56q43 -23 65.5 -66t22.5 -100q0 -39 -15 -73t-41 -59
t-61 -39.5t-75 -14.5q-39 0 -71 14t-56 39.5t-39.5 60.5t-20.5 76l82 15q6 -56 35 -90.5t70 -34.5q22 0 41 8.5t33 23t22 34t8 40.5q0 36 -11.5 59t-34 36t-55.5 16.5t-75 1.5v78z" />
    <glyph glyph-name="B" unicode="B" horiz-adv-x="961" 
d="M451 1366q71 0 134.5 -19t111 -55.5t75 -89.5t27.5 -121q0 -106 -61 -173t-171 -107q76 -17 138 -52t105.5 -85.5t67 -115t23.5 -140.5q0 -96 -36 -171.5t-103.5 -128t-165.5 -80.5t-223 -28h-219v1366h297zM375 88q205 0 315.5 85t110.5 243q0 45 -11.5 87.5t-32.5 79
t-52 65.5t-70 48q-37 20 -92 32t-117 17q-22 2 -65.5 3.5t-112.5 -0.5v-660h127zM248 829q233 5 345 64t112 178q0 49 -18 88.5t-52 67t-82 42.5t-107 15h-198v-455z" />
    <glyph glyph-name="C" unicode="C" horiz-adv-x="1264" 
d="M1210 211q-4 -3 -20.5 -22t-45 -45.5t-70.5 -57t-97 -56t-123.5 -42.5t-151.5 -17q-136 0 -249 50t-193.5 141t-125 218.5t-44.5 281.5q0 159 48 293.5t134 231.5t204 151.5t259 54.5q276 0 463 -228l-61 -63q-76 94 -179 149.5t-225 55.5q-119 0 -219 -47.5
t-172.5 -132.5t-113 -203t-40.5 -258q0 -137 37.5 -248.5t105.5 -191t164 -122.5t214 -43q74 0 134.5 13t113 39.5t101 66t99.5 92.5z" />
    </font>
</defs>
</svg>
